<?xml version="1.0" encoding="UTF-8"?>
<svg xmlns="http://www.w3.org/2000/svg" xmlns:xlink="http://www.w3.org/1999/xlink" width="300pt" height="299.999988pt" viewBox="0 0 300 299.999988" version="1.2">
<defs>
<clipPath id="clip1">
  <path d="M 77 129 L 227 129 L 227 277.671875 L 77 277.671875 Z M 77 129 "/>
</clipPath>
<clipPath id="clip2">
  <path d="M 63.851562 89.125 L 66.582031 89.125 L 66.582031 144 L 63.851562 144 Z M 63.851562 89.125 "/>
</clipPath>
<clipPath id="clip3">
  <path d="M 113.984375 143.992188 L 113.984375 118.339844 C 113.984375 102.222656 100.914062 89.152344 84.789062 89.152344 L 83.785156 89.152344 C 67.660156 89.152344 54.589844 102.222656 54.589844 118.339844 L 54.589844 143.992188 L 113.984375 143.992188 "/>
</clipPath>
<clipPath id="clip4">
  <path d="M 76.546875 89.125 L 79.277344 89.125 L 79.277344 144 L 76.546875 144 Z M 76.546875 89.125 "/>
</clipPath>
<clipPath id="clip5">
  <path d="M 113.984375 143.992188 L 113.984375 118.339844 C 113.984375 102.222656 100.914062 89.152344 84.789062 89.152344 L 83.785156 89.152344 C 67.660156 89.152344 54.589844 102.222656 54.589844 118.339844 L 54.589844 143.992188 L 113.984375 143.992188 "/>
</clipPath>
<clipPath id="clip6">
  <path d="M 89.242188 89.125 L 91.96875 89.125 L 91.96875 144 L 89.242188 144 Z M 89.242188 89.125 "/>
</clipPath>
<clipPath id="clip7">
  <path d="M 113.984375 143.992188 L 113.984375 118.339844 C 113.984375 102.222656 100.914062 89.152344 84.789062 89.152344 L 83.785156 89.152344 C 67.660156 89.152344 54.589844 102.222656 54.589844 118.339844 L 54.589844 143.992188 L 113.984375 143.992188 "/>
</clipPath>
<clipPath id="clip8">
  <path d="M 102 89.125 L 104.664062 89.125 L 104.664062 144 L 102 144 Z M 102 89.125 "/>
</clipPath>
<clipPath id="clip9">
  <path d="M 113.984375 143.992188 L 113.984375 118.339844 C 113.984375 102.222656 100.914062 89.152344 84.789062 89.152344 L 83.785156 89.152344 C 67.660156 89.152344 54.589844 102.222656 54.589844 118.339844 L 54.589844 143.992188 L 113.984375 143.992188 "/>
</clipPath>
<clipPath id="clip10">
  <path d="M 54.570312 133.34375 L 114 133.34375 L 114 136.070312 L 54.570312 136.070312 Z M 54.570312 133.34375 "/>
</clipPath>
<clipPath id="clip11">
  <path d="M 113.984375 143.992188 L 113.984375 118.339844 C 113.984375 102.222656 100.914062 89.152344 84.789062 89.152344 L 83.785156 89.152344 C 67.660156 89.152344 54.589844 102.222656 54.589844 118.339844 L 54.589844 143.992188 L 113.984375 143.992188 "/>
</clipPath>
<clipPath id="clip12">
  <path d="M 54.570312 120.652344 L 114 120.652344 L 114 123.378906 L 54.570312 123.378906 Z M 54.570312 120.652344 "/>
</clipPath>
<clipPath id="clip13">
  <path d="M 113.984375 143.992188 L 113.984375 118.339844 C 113.984375 102.222656 100.914062 89.152344 84.789062 89.152344 L 83.785156 89.152344 C 67.660156 89.152344 54.589844 102.222656 54.589844 118.339844 L 54.589844 143.992188 L 113.984375 143.992188 "/>
</clipPath>
<clipPath id="clip14">
  <path d="M 54.570312 108 L 114 108 L 114 110.6875 L 54.570312 110.6875 Z M 54.570312 108 "/>
</clipPath>
<clipPath id="clip15">
  <path d="M 113.984375 143.992188 L 113.984375 118.339844 C 113.984375 102.222656 100.914062 89.152344 84.789062 89.152344 L 83.785156 89.152344 C 67.660156 89.152344 54.589844 102.222656 54.589844 118.339844 L 54.589844 143.992188 L 113.984375 143.992188 "/>
</clipPath>
<clipPath id="clip16">
  <path d="M 54.570312 95.269531 L 114 95.269531 L 114 97.996094 L 54.570312 97.996094 Z M 54.570312 95.269531 "/>
</clipPath>
<clipPath id="clip17">
  <path d="M 113.984375 143.992188 L 113.984375 118.339844 C 113.984375 102.222656 100.914062 89.152344 84.789062 89.152344 L 83.785156 89.152344 C 67.660156 89.152344 54.589844 102.222656 54.589844 118.339844 L 54.589844 143.992188 L 113.984375 143.992188 "/>
</clipPath>
<clipPath id="clip18">
  <path d="M 43.28125 140 L 126 140 L 126 207 L 43.28125 207 Z M 43.28125 140 "/>
</clipPath>
<clipPath id="clip19">
  <path d="M 56 265 L 113 265 L 113 277.671875 L 56 277.671875 Z M 56 265 "/>
</clipPath>
<clipPath id="clip20">
  <path d="M 172 22.671875 L 257.03125 22.671875 L 257.03125 221 L 172 221 Z M 172 22.671875 "/>
</clipPath>
</defs>
<g id="surface1">
<path style=" stroke:none;fill-rule:nonzero;fill:rgb(27.449036%,35.688782%,65.879822%);fill-opacity:1;" d="M 224.972656 203.664062 C 224.972656 244.003906 192.265625 276.703125 151.917969 276.703125 C 111.574219 276.703125 78.867188 244.003906 78.867188 203.664062 C 78.867188 163.328125 111.574219 130.628906 151.917969 130.628906 C 192.265625 130.628906 224.972656 163.328125 224.972656 203.664062 "/>
<g clip-path="url(#clip1)" clip-rule="nonzero">
<path style=" stroke:none;fill-rule:nonzero;fill:rgb(6.669617%,7.058716%,15.689087%);fill-opacity:1;" d="M 224.972656 203.664062 L 223.679688 203.664062 C 223.675781 223.484375 215.648438 241.410156 202.660156 254.398438 C 196.164062 260.890625 188.433594 266.144531 179.851562 269.773438 C 171.265625 273.402344 161.832031 275.410156 151.917969 275.410156 C 132.097656 275.410156 114.167969 267.382812 101.175781 254.398438 C 88.1875 241.410156 80.160156 223.484375 80.160156 203.664062 C 80.160156 183.851562 88.1875 165.921875 101.175781 152.933594 C 114.167969 139.949219 132.097656 131.921875 151.917969 131.921875 C 171.738281 131.921875 189.671875 139.949219 202.660156 152.933594 C 209.152344 159.425781 214.410156 167.15625 218.039062 175.742188 C 221.671875 184.324219 223.679688 193.757812 223.679688 203.664062 L 226.261719 203.664062 C 226.261719 183.144531 217.941406 164.554688 204.488281 151.109375 C 191.039062 137.660156 172.445312 129.335938 151.917969 129.335938 C 131.394531 129.335938 112.800781 137.660156 99.351562 151.109375 C 85.898438 164.554688 77.574219 183.144531 77.574219 203.664062 C 77.574219 224.1875 85.898438 242.777344 99.351562 256.226562 C 112.800781 269.675781 131.394531 277.996094 151.917969 277.996094 C 172.445312 277.996094 191.039062 269.675781 204.488281 256.226562 C 217.941406 242.777344 226.261719 224.1875 226.261719 203.664062 L 224.972656 203.664062 "/>
</g>
<path style=" stroke:none;fill-rule:nonzero;fill:rgb(46.269226%,52.159119%,76.858521%);fill-opacity:1;" d="M 123.90625 192.371094 L 109.847656 186.035156 C 109.921875 185.925781 109.996094 185.816406 110.070312 185.710938 C 112.4375 182.203125 114.097656 178.175781 114.839844 173.835938 C 115.734375 172.746094 116.683594 171.691406 117.667969 170.679688 C 119.5 168.761719 121.488281 166.996094 123.570312 165.417969 C 125.039062 164.324219 126.542969 163.304688 128.070312 162.386719 L 138.957031 176.390625 C 132.144531 179.628906 126.746094 185.34375 123.90625 192.371094 M 115.269531 169.464844 C 115.273438 169.199219 115.277344 168.929688 115.277344 168.664062 L 115.277344 145.929688 L 126.609375 160.507812 C 125.070312 161.371094 123.542969 162.328125 122.082031 163.417969 C 119.871094 165.050781 117.757812 166.886719 115.808594 168.886719 C 115.625 169.078125 115.445312 169.269531 115.269531 169.464844 "/>
<path style=" stroke:none;fill-rule:nonzero;fill:rgb(46.269226%,52.159119%,76.858521%);fill-opacity:1;" d="M 190.257812 264.324219 L 164.429688 231.09375 C 171.242188 227.855469 176.640625 222.140625 179.480469 215.113281 L 217.714844 232.347656 C 214.097656 240.628906 208.960938 248.097656 202.660156 254.398438 C 198.914062 258.144531 194.757812 261.476562 190.257812 264.324219 "/>
<path style=" stroke:none;fill-rule:nonzero;fill:rgb(10.978699%,11.759949%,29.40979%);fill-opacity:1;" d="M 190.980469 265.25 L 190.257812 264.324219 C 194.757812 261.476562 198.914062 258.144531 202.660156 254.398438 C 208.960938 248.097656 214.097656 240.628906 217.714844 232.347656 L 218.058594 232.503906 C 212.546875 247.554688 204.25 256.703125 190.980469 265.25 "/>
<path style=" stroke:none;fill-rule:nonzero;fill:rgb(46.269226%,52.159119%,76.858521%);fill-opacity:1;" d="M 123.21875 269.445312 C 114.941406 265.828125 107.476562 260.695312 101.175781 254.398438 C 97.464844 250.6875 94.160156 246.570312 91.328125 242.121094 L 99.148438 236.046875 C 99.199219 236.132812 99.25 236.214844 99.304688 236.300781 C 101.589844 239.941406 104.253906 243.339844 107.183594 246.386719 C 110.109375 249.4375 113.34375 252.089844 116.660156 254.359375 C 119.972656 256.632812 123.425781 258.453125 126.804688 259.890625 C 127.007812 259.976562 127.207031 260.0625 127.410156 260.148438 L 123.21875 269.445312 "/>
<path style=" stroke:none;fill-rule:nonzero;fill:rgb(10.978699%,11.759949%,29.40979%);fill-opacity:1;" d="M 122.925781 270.09375 C 107.875 264.585938 98.722656 256.289062 90.171875 243.019531 L 91.328125 242.121094 C 94.160156 246.570312 97.464844 250.6875 101.175781 254.398438 C 107.476562 260.695312 114.941406 265.828125 123.21875 269.445312 L 122.925781 270.09375 "/>
<path style=" stroke:none;fill-rule:nonzero;fill:rgb(46.269226%,52.159119%,76.858521%);fill-opacity:1;" d="M 128.191406 258.414062 C 127.992188 258.324219 127.789062 258.230469 127.589844 258.136719 C 124.363281 256.628906 121.113281 254.734375 117.957031 252.496094 C 114.796875 250.253906 111.785156 247.597656 108.988281 244.664062 C 106.195312 241.71875 103.660156 238.441406 101.496094 234.9375 C 101.394531 234.777344 101.296875 234.617188 101.199219 234.453125 L 124.332031 216.476562 C 127.574219 223.285156 133.289062 228.6875 140.320312 231.523438 L 128.191406 258.414062 "/>
<path style=" stroke:none;fill-rule:nonzero;fill:rgb(46.269226%,52.159119%,76.858521%);fill-opacity:1;" d="M 179.050781 191.007812 C 175.808594 184.199219 170.09375 178.796875 163.066406 175.960938 L 180.296875 137.75 C 188.703125 141.371094 196.28125 146.554688 202.660156 152.933594 C 206.335938 156.609375 209.613281 160.679688 212.421875 165.074219 L 179.050781 191.007812 "/>
<path style=" stroke:none;fill-rule:nonzero;fill:rgb(10.978699%,11.759949%,29.40979%);fill-opacity:1;" d="M 212.421875 165.074219 C 209.613281 160.679688 206.335938 156.609375 202.660156 152.933594 C 196.28125 146.554688 188.703125 141.371094 180.296875 137.75 L 180.460938 137.386719 C 195.511719 142.898438 204.660156 151.195312 213.210938 164.460938 L 212.421875 165.074219 "/>
<path style=" stroke:none;fill-rule:nonzero;fill:rgb(6.669617%,7.058716%,15.689087%);fill-opacity:1;" d="M 157.683594 264.015625 C 157.683594 264.015625 157.160156 264.074219 156.179688 264.191406 C 155.199219 264.324219 153.761719 264.441406 151.898438 264.539062 C 150.976562 264.550781 149.953125 264.566406 148.84375 264.582031 C 147.730469 264.539062 146.511719 264.503906 145.222656 264.40625 C 142.640625 264.203125 139.738281 263.800781 136.621094 263.101562 C 133.511719 262.367188 130.183594 261.34375 126.804688 259.890625 C 123.425781 258.453125 119.972656 256.632812 116.660156 254.359375 C 113.34375 252.089844 110.109375 249.4375 107.183594 246.386719 C 104.253906 243.339844 101.589844 239.941406 99.304688 236.300781 C 97.042969 232.648438 95.160156 228.757812 93.742188 224.773438 C 92.300781 220.796875 91.375 216.714844 90.820312 212.738281 C 90.269531 208.757812 90.136719 204.851562 90.410156 201.195312 C 90.457031 199.402344 90.71875 197.601562 90.9375 195.878906 C 91.027344 195.011719 91.214844 194.183594 91.382812 193.367188 C 91.546875 192.554688 91.710938 191.753906 91.871094 190.972656 C 92.265625 189.421875 92.695312 187.953125 93.089844 186.554688 C 93.585938 185.191406 94.054688 183.894531 94.496094 182.675781 C 95.019531 181.496094 95.511719 180.390625 95.96875 179.371094 C 96.183594 178.855469 96.445312 178.386719 96.6875 177.933594 C 96.929688 177.484375 97.160156 177.054688 97.378906 176.648438 C 98.210938 174.992188 99.070312 173.8125 99.582031 172.96875 C 100.113281 172.136719 100.398438 171.695312 100.398438 171.695312 C 100.398438 171.695312 100.15625 172.164062 99.703125 173.039062 C 99.261719 173.921875 98.546875 175.179688 97.839844 176.875 C 97.65625 177.296875 97.460938 177.738281 97.253906 178.199219 C 97.050781 178.664062 96.828125 179.140625 96.652344 179.667969 C 96.273438 180.703125 95.863281 181.820312 95.425781 183.015625 C 95.070312 184.238281 94.6875 185.535156 94.289062 186.902344 C 93.988281 188.296875 93.628906 189.75 93.324219 191.277344 C 93.207031 192.046875 93.085938 192.835938 92.964844 193.636719 C 92.839844 194.4375 92.699219 195.25 92.65625 196.082031 C 92.527344 197.746094 92.316406 199.433594 92.339844 201.261719 C 92.199219 204.828125 92.480469 208.582031 93.070312 212.40625 C 93.671875 216.230469 94.703125 220.109375 96.085938 223.921875 C 97.472656 227.734375 99.3125 231.449219 101.496094 234.9375 C 103.660156 238.441406 106.195312 241.71875 108.988281 244.664062 C 111.785156 247.597656 114.796875 250.253906 117.957031 252.496094 C 121.113281 254.734375 124.363281 256.628906 127.589844 258.136719 C 130.816406 259.640625 133.992188 260.796875 136.988281 261.667969 C 139.996094 262.488281 142.808594 263.066406 145.328125 263.425781 C 146.585938 263.609375 147.769531 263.703125 148.863281 263.835938 C 149.972656 263.90625 150.992188 263.972656 151.910156 264.03125 C 152.824219 264.046875 153.640625 264.0625 154.351562 264.074219 C 155.066406 264.101562 155.675781 264.054688 156.167969 264.050781 C 157.15625 264.027344 157.683594 264.015625 157.683594 264.015625 "/>
<path style=" stroke:none;fill-rule:nonzero;fill:rgb(6.669617%,7.058716%,15.689087%);fill-opacity:1;" d="M 144.378906 143.515625 C 144.378906 143.515625 144.796875 143.449219 145.582031 143.332031 C 145.972656 143.273438 146.457031 143.199219 147.023438 143.113281 C 147.59375 143.019531 148.246094 142.925781 148.988281 142.882812 C 149.730469 142.824219 150.554688 142.761719 151.449219 142.691406 C 152.367188 142.617188 153.3125 142.644531 154.347656 142.617188 C 155.371094 142.585938 156.492188 142.675781 157.660156 142.703125 C 158.832031 142.753906 160.046875 142.914062 161.328125 143.027344 C 163.863281 143.386719 166.625 143.816406 169.460938 144.636719 C 172.296875 145.4375 175.273438 146.402344 178.195312 147.777344 C 181.125 149.128906 184.070312 150.71875 186.878906 152.625 C 189.699219 154.515625 192.371094 156.714844 194.867188 159.09375 C 197.34375 161.496094 199.609375 164.105469 201.632812 166.832031 C 203.660156 169.554688 205.335938 172.457031 206.792969 175.332031 C 207.535156 176.761719 208.160156 178.222656 208.761719 179.648438 C 209.296875 181.109375 209.851562 182.519531 210.265625 183.9375 C 210.734375 185.335938 211.066406 186.730469 211.414062 188.074219 C 211.570312 188.746094 211.6875 189.417969 211.820312 190.074219 C 211.953125 190.726562 212.089844 191.367188 212.171875 192.003906 C 212.355469 193.273438 212.554688 194.484375 212.632812 195.652344 C 212.683594 196.234375 212.734375 196.796875 212.78125 197.347656 C 212.804688 197.898438 212.824219 198.4375 212.84375 198.957031 C 212.863281 199.472656 212.882812 199.976562 212.902344 200.457031 C 212.890625 200.945312 212.886719 201.410156 212.878906 201.859375 C 212.867188 202.308594 212.859375 202.738281 212.847656 203.148438 C 212.839844 203.359375 212.84375 203.542969 212.828125 203.761719 C 212.8125 203.957031 212.796875 204.144531 212.777344 204.328125 C 212.503906 207.273438 212.320312 208.957031 212.320312 208.957031 C 212.320312 208.957031 212.285156 207.265625 212.265625 204.304688 C 212.261719 204.121094 212.261719 203.929688 212.261719 203.738281 C 212.257812 203.566406 212.234375 203.351562 212.222656 203.152344 C 212.195312 202.746094 212.160156 202.324219 212.128906 201.882812 C 212.097656 201.441406 212.066406 200.980469 212.027344 200.503906 C 211.976562 200.027344 211.917969 199.539062 211.859375 199.03125 C 211.800781 198.523438 211.738281 198 211.671875 197.464844 C 211.582031 196.929688 211.492188 196.378906 211.394531 195.816406 C 211.230469 194.683594 210.972656 193.507812 210.710938 192.285156 C 210.152344 189.847656 209.425781 187.234375 208.4375 184.554688 C 207.976562 183.203125 207.375 181.863281 206.800781 180.480469 C 206.144531 179.132812 205.535156 177.730469 204.773438 176.375 C 203.308594 173.636719 201.574219 170.929688 199.628906 168.320312 C 197.667969 165.71875 195.464844 163.238281 193.074219 160.953125 C 190.703125 158.652344 188.160156 156.519531 185.46875 154.683594 C 182.78125 152.84375 180.023438 151.195312 177.230469 149.832031 C 174.441406 148.453125 171.628906 147.375 168.914062 146.480469 C 168.230469 146.269531 167.558594 146.0625 166.894531 145.855469 C 166.222656 145.683594 165.558594 145.511719 164.90625 145.34375 C 164.582031 145.257812 164.261719 145.171875 163.941406 145.085938 C 163.617188 145.019531 163.292969 144.953125 162.976562 144.882812 C 162.339844 144.75 161.714844 144.617188 161.101562 144.488281 C 159.867188 144.296875 158.679688 144.082031 157.550781 143.941406 C 156.417969 143.828125 155.355469 143.648438 154.324219 143.601562 C 153.300781 143.546875 152.320312 143.453125 151.457031 143.4375 C 150.570312 143.421875 149.757812 143.40625 149.023438 143.394531 C 148.289062 143.367188 147.625 143.398438 147.050781 143.417969 C 146.476562 143.441406 145.988281 143.457031 145.59375 143.472656 C 144.800781 143.5 144.378906 143.515625 144.378906 143.515625 "/>
<path style=" stroke:none;fill-rule:nonzero;fill:rgb(6.669617%,7.058716%,15.689087%);fill-opacity:1;" d="M 200.5625 199.023438 C 200.5625 199.023438 200.617188 199.445312 200.71875 200.234375 C 200.835938 201.023438 200.941406 202.175781 201.039062 203.6875 C 201.054688 204.429688 201.070312 205.25 201.09375 206.148438 C 201.066406 207.046875 201.046875 208.03125 200.972656 209.074219 C 200.824219 211.160156 200.519531 213.503906 199.964844 216.03125 C 199.386719 218.546875 198.574219 221.242188 197.410156 223.980469 C 196.257812 226.71875 194.796875 229.515625 192.960938 232.203125 C 191.128906 234.890625 188.992188 237.519531 186.519531 239.886719 C 184.054688 242.261719 181.304688 244.421875 178.355469 246.277344 C 175.394531 248.105469 172.242188 249.625 169.015625 250.773438 C 165.792969 251.9375 162.484375 252.675781 159.261719 253.117188 C 156.039062 253.558594 152.875 253.648438 149.917969 253.414062 C 148.476562 253.371094 147.015625 253.152344 145.621094 252.96875 C 144.917969 252.890625 144.25 252.738281 143.589844 252.597656 C 142.933594 252.460938 142.285156 252.324219 141.65625 252.191406 C 140.40625 251.867188 139.21875 251.511719 138.089844 251.1875 C 136.992188 250.777344 135.945312 250.390625 134.964844 250.023438 C 134.015625 249.59375 133.125 249.191406 132.304688 248.816406 C 131.484375 248.441406 130.777344 248 130.117188 247.65625 C 128.785156 246.976562 127.839844 246.269531 127.167969 245.847656 C 126.5 245.410156 126.144531 245.179688 126.144531 245.179688 C 126.144531 245.179688 126.523438 245.371094 127.238281 245.726562 C 127.953125 246.074219 128.972656 246.636719 130.34375 247.195312 C 131.03125 247.472656 131.761719 247.839844 132.601562 248.128906 C 133.4375 248.425781 134.339844 248.75 135.304688 249.09375 C 136.289062 249.375 137.335938 249.671875 138.4375 249.984375 C 139.5625 250.21875 140.730469 250.503906 141.960938 250.738281 C 142.582031 250.828125 143.214844 250.921875 143.859375 251.015625 C 144.503906 251.113281 145.15625 251.222656 145.824219 251.25 C 147.160156 251.34375 148.507812 251.511719 149.988281 251.484375 C 152.851562 251.585938 155.859375 251.34375 158.929688 250.867188 C 162 250.378906 165.105469 249.535156 168.164062 248.425781 C 171.21875 247.3125 174.195312 245.835938 176.992188 244.082031 C 179.804688 242.347656 182.433594 240.320312 184.796875 238.085938 C 187.152344 235.84375 189.292969 233.4375 191.097656 230.90625 C 192.898438 228.378906 194.433594 225.78125 195.65625 223.195312 C 196.871094 220.609375 197.820312 218.066406 198.535156 215.664062 C 199.203125 213.25 199.6875 210.996094 199.996094 208.96875 C 200.148438 207.957031 200.230469 207.007812 200.347656 206.128906 C 200.410156 205.234375 200.472656 204.414062 200.527344 203.671875 C 200.5625 202.214844 200.617188 201.039062 200.578125 200.242188 C 200.566406 199.449219 200.5625 199.023438 200.5625 199.023438 "/>
<path style=" stroke:none;fill-rule:nonzero;fill:rgb(6.669617%,7.058716%,15.689087%);fill-opacity:1;" d="M 103.429688 209.746094 C 103.429688 209.746094 103.375 209.40625 103.273438 208.777344 C 103.21875 208.460938 103.15625 208.070312 103.078125 207.613281 C 102.996094 207.15625 102.914062 206.632812 102.875 206.03125 C 102.820312 205.433594 102.761719 204.769531 102.695312 204.046875 C 102.625 203.300781 102.644531 202.542969 102.613281 201.707031 C 102.578125 200.882812 102.644531 199.976562 102.660156 199.03125 C 102.691406 198.082031 102.8125 197.101562 102.898438 196.066406 C 103.171875 194.011719 103.5 191.777344 104.15625 189.480469 C 104.792969 187.183594 105.5625 184.769531 106.667969 182.398438 C 107.757812 180.027344 109.03125 177.632812 110.578125 175.359375 C 112.105469 173.078125 113.882812 170.910156 115.808594 168.886719 C 117.757812 166.886719 119.871094 165.050781 122.082031 163.417969 C 124.289062 161.773438 126.644531 160.425781 128.976562 159.253906 C 130.136719 158.65625 131.320312 158.15625 132.480469 157.675781 C 133.660156 157.25 134.804688 156.804688 135.953125 156.476562 C 137.089844 156.105469 138.21875 155.839844 139.304688 155.566406 C 140.40625 155.351562 141.464844 155.117188 142.492188 154.976562 C 143.519531 154.835938 144.496094 154.679688 145.441406 154.625 C 145.914062 154.589844 146.371094 154.554688 146.816406 154.519531 C 147.261719 154.503906 147.695312 154.492188 148.113281 154.480469 C 148.53125 154.46875 148.9375 154.457031 149.328125 154.445312 C 149.71875 154.457031 150.097656 154.464844 150.460938 154.476562 C 150.820312 154.488281 151.167969 154.5 151.5 154.511719 C 151.671875 154.519531 151.816406 154.515625 151.996094 154.53125 C 152.15625 154.546875 152.304688 154.566406 152.453125 154.578125 C 154.828125 154.828125 156.183594 154.996094 156.183594 154.996094 C 156.183594 154.996094 154.820312 155.046875 152.433594 155.09375 C 152.285156 155.09375 152.128906 155.097656 151.972656 155.101562 C 151.839844 155.105469 151.664062 155.125 151.507812 155.136719 C 151.179688 155.164062 150.839844 155.195312 150.480469 155.222656 C 150.128906 155.253906 149.757812 155.285156 149.375 155.316406 C 148.992188 155.363281 148.597656 155.414062 148.1875 155.464844 C 147.78125 155.515625 147.363281 155.570312 146.929688 155.625 C 146.5 155.703125 146.058594 155.78125 145.605469 155.863281 C 144.695312 156.003906 143.753906 156.21875 142.773438 156.433594 C 140.816406 156.898438 138.722656 157.5 136.574219 158.304688 C 135.488281 158.679688 134.414062 159.167969 133.308594 159.636719 C 132.230469 160.167969 131.109375 160.660156 130.019531 161.273438 C 127.824219 162.453125 125.664062 163.859375 123.570312 165.417969 C 121.488281 166.996094 119.5 168.761719 117.667969 170.679688 C 115.820312 172.578125 114.109375 174.613281 112.632812 176.769531 C 111.15625 178.925781 109.824219 181.128906 108.722656 183.367188 C 107.609375 185.597656 106.730469 187.851562 106 190.027344 C 105.828125 190.570312 105.65625 191.113281 105.492188 191.644531 C 105.347656 192.183594 105.207031 192.714844 105.066406 193.238281 C 104.757812 194.277344 104.589844 195.308594 104.359375 196.289062 C 104.007812 198.277344 103.738281 200.082031 103.597656 201.734375 C 103.542969 202.554688 103.460938 203.351562 103.441406 204.039062 C 103.417969 204.75 103.398438 205.40625 103.382812 205.996094 C 103.339844 207.183594 103.414062 208.125 103.410156 208.761719 C 103.421875 209.402344 103.429688 209.746094 103.429688 209.746094 "/>
<path style=" stroke:none;fill-rule:nonzero;fill:rgb(96.469116%,87.838745%,27.059937%);fill-opacity:1;" d="M 182.125 203.664062 C 182.125 220.347656 168.601562 233.867188 151.917969 233.867188 C 135.234375 233.867188 121.714844 220.347656 121.714844 203.664062 C 121.714844 186.988281 135.234375 173.464844 151.917969 173.464844 C 168.601562 173.464844 182.125 186.988281 182.125 203.664062 "/>
<path style=" stroke:none;fill-rule:nonzero;fill:rgb(6.669617%,7.058716%,15.689087%);fill-opacity:1;" d="M 182.125 203.664062 L 180.832031 203.664062 C 180.832031 207.660156 180.023438 211.460938 178.5625 214.917969 C 176.367188 220.105469 172.699219 224.519531 168.085938 227.636719 C 163.46875 230.757812 157.910156 232.574219 151.917969 232.574219 C 147.921875 232.574219 144.121094 231.765625 140.664062 230.304688 C 135.476562 228.109375 131.058594 224.441406 127.941406 219.828125 C 124.824219 215.214844 123.007812 209.660156 123.003906 203.664062 C 123.003906 199.671875 123.8125 195.871094 125.277344 192.414062 C 127.472656 187.226562 131.140625 182.8125 135.753906 179.695312 C 140.371094 176.578125 145.925781 174.757812 151.917969 174.757812 C 155.914062 174.757812 159.714844 175.566406 163.171875 177.027344 C 168.359375 179.222656 172.777344 182.890625 175.894531 187.503906 C 179.011719 192.121094 180.832031 197.675781 180.832031 203.664062 L 183.417969 203.664062 C 183.417969 199.324219 182.535156 195.175781 180.941406 191.40625 C 178.550781 185.753906 174.558594 180.949219 169.53125 177.554688 C 164.503906 174.15625 158.4375 172.171875 151.917969 172.171875 C 147.574219 172.171875 143.425781 173.054688 139.65625 174.648438 C 134.003906 177.039062 129.195312 181.03125 125.800781 186.058594 C 122.40625 191.082031 120.421875 197.148438 120.421875 203.664062 C 120.421875 208.011719 121.300781 212.15625 122.898438 215.925781 C 125.289062 221.578125 129.28125 226.382812 134.308594 229.78125 C 139.332031 233.175781 145.402344 235.160156 151.917969 235.160156 C 156.265625 235.160156 160.410156 234.277344 164.179688 232.683594 C 169.835938 230.292969 174.640625 226.300781 178.039062 221.277344 C 181.433594 216.25 183.417969 210.183594 183.417969 203.664062 L 182.125 203.664062 "/>
<path style=" stroke:none;fill-rule:nonzero;fill:rgb(6.669617%,7.058716%,15.689087%);fill-opacity:1;" d="M 162.835938 203.664062 C 162.835938 209.695312 157.949219 214.582031 151.917969 214.582031 C 145.890625 214.582031 141.003906 209.695312 141.003906 203.664062 C 141.003906 197.636719 145.890625 192.75 151.917969 192.75 C 157.949219 192.75 162.835938 197.636719 162.835938 203.664062 "/>
<path style=" stroke:none;fill-rule:nonzero;fill:rgb(96.469116%,87.838745%,27.059937%);fill-opacity:1;" d="M 113.984375 168.664062 C 113.984375 184.785156 100.914062 197.855469 84.789062 197.855469 L 83.785156 197.855469 C 67.660156 197.855469 54.589844 184.785156 54.589844 168.664062 L 54.589844 118.339844 C 54.589844 102.222656 67.660156 89.152344 83.785156 89.152344 L 84.789062 89.152344 C 100.914062 89.152344 113.984375 102.222656 113.984375 118.339844 L 113.984375 168.664062 "/>
<path style=" stroke:none;fill-rule:nonzero;fill:rgb(6.669617%,7.058716%,15.689087%);fill-opacity:1;" d="M 113.984375 168.664062 L 112.691406 168.664062 C 112.691406 172.519531 111.914062 176.1875 110.5 179.523438 C 108.382812 184.527344 104.84375 188.789062 100.390625 191.800781 C 95.933594 194.808594 90.574219 196.5625 84.789062 196.5625 L 83.785156 196.5625 C 79.929688 196.5625 76.261719 195.78125 72.925781 194.371094 C 67.917969 192.253906 63.65625 188.714844 60.644531 184.261719 C 57.636719 179.808594 55.882812 174.445312 55.878906 168.664062 L 55.878906 118.339844 C 55.882812 114.484375 56.660156 110.820312 58.074219 107.484375 C 60.191406 102.476562 63.730469 98.214844 68.183594 95.207031 C 72.640625 92.199219 78 90.445312 83.785156 90.441406 L 84.789062 90.441406 C 88.644531 90.445312 92.3125 91.222656 95.648438 92.636719 C 100.65625 94.75 104.917969 98.289062 107.929688 102.742188 C 110.9375 107.199219 112.691406 112.558594 112.691406 118.339844 L 112.691406 168.664062 L 115.277344 168.664062 L 115.277344 118.339844 C 115.277344 114.136719 114.425781 110.125 112.882812 106.476562 C 110.566406 101.003906 106.703125 96.351562 101.835938 93.066406 C 96.972656 89.78125 91.097656 87.859375 84.789062 87.859375 L 83.785156 87.859375 C 79.578125 87.859375 75.566406 88.710938 71.917969 90.253906 C 66.445312 92.570312 61.792969 96.433594 58.503906 101.296875 C 55.21875 106.160156 53.296875 112.035156 53.296875 118.339844 L 53.296875 168.664062 C 53.296875 172.871094 54.148438 176.882812 55.691406 180.53125 C 58.007812 186.003906 61.871094 190.652344 66.738281 193.941406 C 71.601562 197.226562 77.476562 199.148438 83.785156 199.148438 L 84.789062 199.148438 C 88.996094 199.148438 93.007812 198.292969 96.65625 196.75 C 102.128906 194.4375 106.78125 190.574219 110.070312 185.710938 C 113.359375 180.847656 115.277344 174.972656 115.277344 168.664062 L 113.984375 168.664062 "/>
<path style=" stroke:none;fill-rule:nonzero;fill:rgb(96.469116%,87.838745%,27.059937%);fill-opacity:1;" d="M 113.984375 143.992188 L 113.984375 118.339844 C 113.984375 102.222656 100.914062 89.152344 84.789062 89.152344 L 83.785156 89.152344 C 67.660156 89.152344 54.589844 102.222656 54.589844 118.339844 L 54.589844 143.992188 L 113.984375 143.992188 "/>
<path style=" stroke:none;fill-rule:nonzero;fill:rgb(6.669617%,7.058716%,15.689087%);fill-opacity:1;" d="M 113.984375 143.992188 L 115.277344 143.992188 L 115.277344 118.339844 C 115.277344 114.136719 114.425781 110.125 112.882812 106.476562 C 110.566406 101.003906 106.703125 96.351562 101.835938 93.066406 C 96.972656 89.78125 91.097656 87.859375 84.789062 87.859375 L 83.785156 87.859375 C 79.578125 87.859375 75.566406 88.710938 71.917969 90.253906 C 66.445312 92.570312 61.792969 96.433594 58.503906 101.296875 C 55.21875 106.160156 53.296875 112.035156 53.296875 118.339844 L 53.296875 143.992188 C 53.296875 144.332031 53.433594 144.667969 53.675781 144.90625 C 53.914062 145.148438 54.25 145.285156 54.589844 145.285156 L 113.984375 145.285156 C 114.324219 145.285156 114.660156 145.148438 114.898438 144.90625 C 115.140625 144.667969 115.277344 144.332031 115.277344 143.992188 L 113.984375 143.992188 L 113.984375 142.703125 L 55.878906 142.703125 L 55.878906 118.339844 C 55.882812 114.484375 56.660156 110.820312 58.074219 107.484375 C 60.191406 102.476562 63.730469 98.214844 68.183594 95.207031 C 72.640625 92.199219 78 90.445312 83.785156 90.441406 L 84.789062 90.441406 C 88.644531 90.445312 92.3125 91.222656 95.648438 92.636719 C 100.65625 94.75 104.917969 98.289062 107.929688 102.742188 C 110.9375 107.199219 112.691406 112.558594 112.691406 118.339844 L 112.691406 143.992188 L 113.984375 143.992188 L 113.984375 142.703125 L 113.984375 143.992188 "/>
<path style=" stroke:none;fill-rule:nonzero;fill:rgb(84.309387%,9.408569%,44.709778%);fill-opacity:1;" d="M 54.589844 144.007812 L 54.589844 168.664062 C 54.589844 184.785156 67.660156 197.855469 83.785156 197.855469 L 84.789062 197.855469 C 100.914062 197.855469 113.984375 184.785156 113.984375 168.664062 L 113.984375 144.007812 L 54.589844 144.007812 "/>
<path style=" stroke:none;fill-rule:nonzero;fill:rgb(6.669617%,7.058716%,15.689087%);fill-opacity:1;" d="M 54.589844 144.007812 L 53.296875 144.007812 L 53.296875 168.664062 C 53.296875 172.871094 54.148438 176.882812 55.691406 180.53125 C 58.007812 186.003906 61.871094 190.652344 66.738281 193.941406 C 71.601562 197.226562 77.476562 199.148438 83.785156 199.148438 L 84.789062 199.148438 C 88.996094 199.148438 93.007812 198.292969 96.65625 196.75 C 102.128906 194.4375 106.78125 190.574219 110.070312 185.710938 C 113.359375 180.847656 115.277344 174.972656 115.277344 168.664062 L 115.277344 144.007812 C 115.277344 143.667969 115.140625 143.332031 114.898438 143.09375 C 114.660156 142.851562 114.324219 142.714844 113.984375 142.714844 L 54.589844 142.714844 C 54.25 142.714844 53.914062 142.851562 53.675781 143.09375 C 53.433594 143.332031 53.296875 143.667969 53.296875 144.007812 L 54.589844 144.007812 L 54.589844 145.296875 L 112.691406 145.296875 L 112.691406 168.664062 C 112.691406 172.519531 111.914062 176.1875 110.5 179.523438 C 108.382812 184.527344 104.84375 188.789062 100.390625 191.800781 C 95.933594 194.808594 90.574219 196.5625 84.789062 196.5625 L 83.785156 196.5625 C 79.929688 196.5625 76.261719 195.78125 72.925781 194.371094 C 67.917969 192.253906 63.65625 188.714844 60.644531 184.261719 C 57.636719 179.808594 55.882812 174.445312 55.878906 168.664062 L 55.878906 144.007812 L 54.589844 144.007812 L 54.589844 145.296875 L 54.589844 144.007812 "/>
<path style=" stroke:none;fill-rule:nonzero;fill:rgb(74.119568%,51.368713%,20.388794%);fill-opacity:1;" d="M 112.691406 142.703125 L 99.316406 142.703125 C 99.4375 140.554688 99.535156 138.328125 99.617188 136.058594 L 112.691406 136.058594 L 112.691406 142.703125 "/>
<path style=" stroke:none;fill-rule:nonzero;fill:rgb(5.099487%,5.099487%,11.759949%);fill-opacity:1;" d="M 113.984375 142.714844 L 113.984375 142.703125 L 113.984375 142.714844 L 99.316406 142.714844 C 99.316406 142.710938 99.316406 142.707031 99.316406 142.703125 L 112.691406 142.703125 L 112.691406 136.058594 L 113.984375 136.058594 L 113.984375 142.714844 "/>
<path style=" stroke:none;fill-rule:nonzero;fill:rgb(74.119568%,51.368713%,20.388794%);fill-opacity:1;" d="M 112.691406 133.476562 L 99.699219 133.476562 C 99.796875 130.125 99.859375 126.710938 99.894531 123.351562 L 112.691406 123.351562 L 112.691406 133.476562 "/>
<path style=" stroke:none;fill-rule:nonzero;fill:rgb(5.099487%,5.099487%,11.759949%);fill-opacity:1;" d="M 112.691406 133.476562 L 113.984375 133.476562 L 113.984375 123.351562 L 112.691406 123.351562 Z M 112.691406 133.476562 "/>
<path style=" stroke:none;fill-rule:nonzero;fill:rgb(74.119568%,51.368713%,20.388794%);fill-opacity:1;" d="M 112.691406 120.765625 L 99.917969 120.765625 C 99.992188 109.855469 99.816406 99.851562 99.78125 94.808594 C 103.011719 96.867188 105.789062 99.574219 107.929688 102.742188 C 110.9375 107.199219 112.691406 112.558594 112.691406 118.339844 L 112.691406 120.765625 "/>
<path style=" stroke:none;fill-rule:nonzero;fill:rgb(5.099487%,5.099487%,11.759949%);fill-opacity:1;" d="M 113.984375 120.765625 L 112.691406 120.765625 L 112.691406 118.339844 C 112.691406 112.558594 110.9375 107.199219 107.929688 102.742188 C 105.789062 99.574219 103.011719 96.867188 99.78125 94.808594 C 99.777344 94.023438 99.777344 93.359375 99.777344 92.828125 C 107.585938 98.070312 113.984375 108.234375 113.984375 118.339844 L 113.984375 120.765625 "/>
<path style=" stroke:none;fill-rule:nonzero;fill:rgb(66.268921%,5.879211%,32.939148%);fill-opacity:1;" d="M 84.789062 196.5625 L 83.785156 196.5625 C 79.929688 196.5625 76.261719 195.78125 72.925781 194.371094 C 68.570312 192.53125 64.777344 189.613281 61.882812 185.957031 C 65.183594 186.710938 68.476562 186.945312 71.242188 186.945312 C 86.636719 186.945312 93.179688 173.460938 96.929688 161.253906 C 98 157.761719 98.699219 152.027344 99.15625 145.296875 L 112.691406 145.296875 L 112.691406 168.664062 C 112.691406 172.519531 111.914062 176.1875 110.5 179.523438 C 108.382812 184.527344 104.84375 188.789062 100.390625 191.800781 C 95.933594 194.808594 90.574219 196.5625 84.789062 196.5625 "/>
<path style=" stroke:none;fill-rule:nonzero;fill:rgb(5.099487%,5.099487%,11.759949%);fill-opacity:1;" d="M 84.789062 197.855469 L 83.785156 197.855469 C 73.902344 197.855469 65.171875 192.941406 59.890625 185.429688 C 60.550781 185.628906 61.21875 185.800781 61.882812 185.957031 C 64.777344 189.613281 68.570312 192.53125 72.925781 194.371094 C 76.261719 195.78125 79.929688 196.5625 83.785156 196.5625 L 84.789062 196.5625 C 90.574219 196.5625 95.933594 194.808594 100.390625 191.800781 C 104.84375 188.789062 108.382812 184.527344 110.5 179.523438 C 111.914062 176.1875 112.691406 172.519531 112.691406 168.664062 L 112.691406 145.296875 L 99.15625 145.296875 C 99.210938 144.449219 99.265625 143.589844 99.316406 142.714844 L 113.984375 142.714844 L 113.984375 168.664062 C 113.984375 184.785156 100.914062 197.855469 84.789062 197.855469 "/>
<g clip-path="url(#clip2)" clip-rule="nonzero">
<g clip-path="url(#clip3)" clip-rule="nonzero">
<path style=" stroke:none;fill-rule:nonzero;fill:rgb(6.669617%,7.058716%,15.689087%);fill-opacity:1;" d="M 63.878906 81.355469 L 63.878906 152.914062 C 63.878906 153.628906 64.460938 154.207031 65.171875 154.207031 C 65.886719 154.207031 66.464844 153.628906 66.464844 152.914062 L 66.464844 81.355469 C 66.464844 80.640625 65.886719 80.0625 65.171875 80.0625 C 64.460938 80.0625 63.878906 80.640625 63.878906 81.355469 "/>
</g>
</g>
<g clip-path="url(#clip4)" clip-rule="nonzero">
<g clip-path="url(#clip5)" clip-rule="nonzero">
<path style=" stroke:none;fill-rule:nonzero;fill:rgb(6.669617%,7.058716%,15.689087%);fill-opacity:1;" d="M 76.589844 81.355469 L 76.589844 152.914062 C 76.589844 153.628906 77.171875 154.207031 77.882812 154.207031 C 78.597656 154.207031 79.175781 153.628906 79.175781 152.914062 L 79.175781 81.355469 C 79.175781 80.640625 78.597656 80.0625 77.882812 80.0625 C 77.171875 80.0625 76.589844 80.640625 76.589844 81.355469 "/>
</g>
</g>
<g clip-path="url(#clip6)" clip-rule="nonzero">
<g clip-path="url(#clip7)" clip-rule="nonzero">
<path style=" stroke:none;fill-rule:nonzero;fill:rgb(6.669617%,7.058716%,15.689087%);fill-opacity:1;" d="M 89.300781 81.355469 L 89.300781 152.914062 C 89.300781 153.628906 89.882812 154.207031 90.59375 154.207031 C 91.308594 154.207031 91.886719 153.628906 91.886719 152.914062 L 91.886719 81.355469 C 91.886719 80.640625 91.308594 80.0625 90.59375 80.0625 C 89.882812 80.0625 89.300781 80.640625 89.300781 81.355469 "/>
</g>
</g>
<g clip-path="url(#clip8)" clip-rule="nonzero">
<g clip-path="url(#clip9)" clip-rule="nonzero">
<path style=" stroke:none;fill-rule:nonzero;fill:rgb(6.669617%,7.058716%,15.689087%);fill-opacity:1;" d="M 102.015625 81.355469 L 102.015625 152.914062 C 102.015625 153.628906 102.59375 154.207031 103.304688 154.207031 C 104.019531 154.207031 104.597656 153.628906 104.597656 152.914062 L 104.597656 81.355469 C 104.597656 80.640625 104.019531 80.0625 103.304688 80.0625 C 102.59375 80.0625 102.015625 80.640625 102.015625 81.355469 "/>
</g>
</g>
<g clip-path="url(#clip10)" clip-rule="nonzero">
<g clip-path="url(#clip11)" clip-rule="nonzero">
<path style=" stroke:none;fill-rule:nonzero;fill:rgb(6.669617%,7.058716%,15.689087%);fill-opacity:1;" d="M 48.453125 136.058594 L 120.027344 136.058594 C 120.742188 136.058594 121.320312 135.480469 121.320312 134.765625 C 121.320312 134.054688 120.742188 133.476562 120.027344 133.476562 L 48.453125 133.476562 C 47.738281 133.476562 47.160156 134.054688 47.160156 134.765625 C 47.160156 135.480469 47.738281 136.058594 48.453125 136.058594 "/>
</g>
</g>
<g clip-path="url(#clip12)" clip-rule="nonzero">
<g clip-path="url(#clip13)" clip-rule="nonzero">
<path style=" stroke:none;fill-rule:nonzero;fill:rgb(6.669617%,7.058716%,15.689087%);fill-opacity:1;" d="M 48.453125 123.351562 L 120.027344 123.351562 C 120.742188 123.351562 121.320312 122.773438 121.320312 122.058594 C 121.320312 121.34375 120.742188 120.765625 120.027344 120.765625 L 48.453125 120.765625 C 47.738281 120.765625 47.160156 121.34375 47.160156 122.058594 C 47.160156 122.773438 47.738281 123.351562 48.453125 123.351562 "/>
</g>
</g>
<g clip-path="url(#clip14)" clip-rule="nonzero">
<g clip-path="url(#clip15)" clip-rule="nonzero">
<path style=" stroke:none;fill-rule:nonzero;fill:rgb(6.669617%,7.058716%,15.689087%);fill-opacity:1;" d="M 48.453125 110.644531 L 120.027344 110.644531 C 120.742188 110.644531 121.320312 110.066406 121.320312 109.351562 C 121.320312 108.640625 120.742188 108.058594 120.027344 108.058594 L 48.453125 108.058594 C 47.738281 108.058594 47.160156 108.640625 47.160156 109.351562 C 47.160156 110.066406 47.738281 110.644531 48.453125 110.644531 "/>
</g>
</g>
<g clip-path="url(#clip16)" clip-rule="nonzero">
<g clip-path="url(#clip17)" clip-rule="nonzero">
<path style=" stroke:none;fill-rule:nonzero;fill:rgb(6.669617%,7.058716%,15.689087%);fill-opacity:1;" d="M 48.453125 97.9375 L 120.027344 97.9375 C 120.742188 97.9375 121.320312 97.355469 121.320312 96.644531 C 121.320312 95.929688 120.742188 95.351562 120.027344 95.351562 L 48.453125 95.351562 C 47.738281 95.351562 47.160156 95.929688 47.160156 96.644531 C 47.160156 97.355469 47.738281 97.9375 48.453125 97.9375 "/>
</g>
</g>
<path style=" stroke:none;fill-rule:nonzero;fill:rgb(98.039246%,92.939758%,50.979614%);fill-opacity:1;" d="M 66.464844 142.703125 L 70.386719 142.703125 L 70.386719 136.058594 L 66.464844 136.058594 Z M 66.464844 142.703125 "/>
<path style=" stroke:none;fill-rule:nonzero;fill:rgb(10.978699%,11.759949%,29.40979%);fill-opacity:1;" d="M 66.464844 142.714844 L 70.386719 142.714844 L 70.386719 142.703125 L 66.464844 142.703125 Z M 66.464844 142.714844 "/>
<path style=" stroke:none;fill-rule:nonzero;fill:rgb(98.039246%,92.939758%,50.979614%);fill-opacity:1;" d="M 59.777344 142.703125 L 63.878906 142.703125 L 63.878906 136.058594 L 59.777344 136.058594 Z M 59.777344 142.703125 "/>
<path style=" stroke:none;fill-rule:nonzero;fill:rgb(10.978699%,11.759949%,29.40979%);fill-opacity:1;" d="M 59.777344 142.714844 L 63.878906 142.714844 L 63.878906 142.703125 L 59.777344 142.703125 Z M 59.777344 142.714844 "/>
<path style=" stroke:none;fill-rule:nonzero;fill:rgb(98.039246%,92.939758%,50.979614%);fill-opacity:1;" d="M 70.386719 133.476562 L 66.464844 133.476562 L 66.464844 123.351562 L 70.359375 123.351562 C 70.378906 123.515625 70.386719 123.679688 70.386719 123.847656 L 70.386719 133.476562 M 63.878906 133.476562 L 59.777344 133.476562 L 59.777344 123.847656 C 59.777344 123.679688 59.785156 123.515625 59.804688 123.351562 L 63.878906 123.351562 L 63.878906 133.476562 M 69.222656 120.765625 L 66.464844 120.765625 L 66.464844 119.085938 C 67.570312 119.363281 68.53125 119.960938 69.222656 120.765625 M 63.878906 120.765625 L 60.941406 120.765625 C 61.671875 119.917969 62.703125 119.296875 63.878906 119.042969 L 63.878906 120.765625 "/>
<path style=" stroke:none;fill-rule:nonzero;fill:rgb(89.408875%,19.219971%,54.899597%);fill-opacity:1;" d="M 65.082031 158.585938 C 62.152344 158.585938 59.777344 156.378906 59.777344 153.65625 L 59.777344 145.296875 L 70.386719 145.296875 L 70.386719 153.65625 C 70.386719 156.378906 68.011719 158.585938 65.082031 158.585938 "/>
<path style=" stroke:none;fill-rule:nonzero;fill:rgb(10.978699%,11.759949%,29.40979%);fill-opacity:1;" d="M 70.386719 145.296875 L 59.777344 145.296875 L 59.777344 142.714844 L 63.878906 142.714844 L 63.878906 143.992188 L 66.464844 143.992188 L 66.464844 142.714844 L 70.386719 142.714844 L 70.386719 145.296875 "/>
<path style=" stroke:none;fill-rule:nonzero;fill:rgb(10.978699%,11.759949%,29.40979%);fill-opacity:1;" d="M 66.464844 143.992188 L 63.878906 143.992188 L 63.878906 136.058594 L 66.464844 136.058594 L 66.464844 143.992188 M 66.464844 133.476562 L 63.878906 133.476562 L 63.878906 123.351562 L 66.464844 123.351562 L 66.464844 133.476562 M 66.464844 120.765625 L 63.878906 120.765625 L 63.878906 119.042969 C 64.265625 118.960938 64.667969 118.917969 65.082031 118.917969 C 65.558594 118.917969 66.023438 118.976562 66.464844 119.085938 L 66.464844 120.765625 "/>
<path style=" stroke:none;fill-rule:nonzero;fill:rgb(10.978699%,11.759949%,29.40979%);fill-opacity:1;" d="M 70.386719 136.058594 L 59.777344 136.058594 L 59.777344 133.476562 L 70.386719 133.476562 L 70.386719 136.058594 "/>
<path style=" stroke:none;fill-rule:nonzero;fill:rgb(10.978699%,11.759949%,29.40979%);fill-opacity:1;" d="M 70.359375 123.351562 L 59.804688 123.351562 C 59.910156 122.378906 60.316406 121.488281 60.941406 120.765625 L 69.222656 120.765625 C 69.847656 121.488281 70.253906 122.378906 70.359375 123.351562 "/>
<path style=" stroke:none;fill-rule:nonzero;fill:rgb(96.469116%,87.838745%,27.059937%);fill-opacity:1;" d="M 90.242188 271.199219 L 78.855469 271.199219 L 78.855469 203.546875 L 90.242188 203.546875 L 90.242188 271.199219 "/>
<path style=" stroke:none;fill-rule:nonzero;fill:rgb(6.669617%,7.058716%,15.689087%);fill-opacity:1;" d="M 90.242188 271.199219 L 90.242188 269.90625 L 80.148438 269.90625 L 80.148438 204.839844 L 88.949219 204.839844 L 88.949219 271.199219 L 90.242188 271.199219 L 90.242188 269.90625 L 90.242188 271.199219 L 91.53125 271.199219 L 91.53125 203.546875 C 91.53125 203.207031 91.394531 202.875 91.15625 202.632812 C 90.914062 202.390625 90.582031 202.253906 90.242188 202.253906 L 78.855469 202.253906 C 78.515625 202.253906 78.179688 202.390625 77.941406 202.632812 C 77.699219 202.875 77.5625 203.207031 77.5625 203.546875 L 77.5625 271.199219 C 77.5625 271.539062 77.699219 271.871094 77.941406 272.113281 C 78.179688 272.351562 78.515625 272.488281 78.855469 272.488281 L 90.242188 272.488281 C 90.582031 272.488281 90.914062 272.351562 91.15625 272.113281 C 91.394531 271.871094 91.53125 271.539062 91.53125 271.199219 L 90.242188 271.199219 "/>
<g clip-path="url(#clip18)" clip-rule="nonzero">
<path style=" stroke:none;fill-rule:nonzero;fill:rgb(6.669617%,7.058716%,15.689087%);fill-opacity:1;" d="M 116.617188 170.730469 C 116.617188 187.574219 102.378906 201.273438 84.875 201.273438 L 83.699219 201.273438 C 66.195312 201.273438 51.957031 187.574219 51.957031 170.730469 L 51.957031 145.359375 L 116.617188 145.359375 Z M 125.296875 140.480469 L 43.277344 140.480469 L 43.277344 145.359375 L 47.078125 145.359375 L 47.078125 170.730469 C 47.078125 190.265625 63.507812 206.152344 83.699219 206.152344 L 84.875 206.152344 C 105.070312 206.152344 121.496094 190.265625 121.496094 170.730469 L 121.496094 145.359375 L 125.296875 145.359375 L 125.296875 140.480469 "/>
</g>
<path style=" stroke:none;fill-rule:nonzero;fill:rgb(84.309387%,9.408569%,44.709778%);fill-opacity:1;" d="M 91.894531 238.300781 L 77.0625 238.300781 L 77.0625 220.917969 L 91.894531 220.917969 L 91.894531 238.300781 "/>
<path style=" stroke:none;fill-rule:nonzero;fill:rgb(6.669617%,7.058716%,15.689087%);fill-opacity:1;" d="M 91.894531 238.300781 L 91.894531 237.007812 L 78.355469 237.007812 L 78.355469 222.210938 L 90.601562 222.210938 L 90.601562 238.300781 L 91.894531 238.300781 L 91.894531 237.007812 L 91.894531 238.300781 L 93.1875 238.300781 L 93.1875 220.917969 C 93.1875 220.578125 93.050781 220.246094 92.808594 220.007812 C 92.566406 219.765625 92.234375 219.628906 91.894531 219.628906 L 77.0625 219.628906 C 76.722656 219.628906 76.390625 219.765625 76.148438 220.007812 C 75.90625 220.246094 75.769531 220.578125 75.769531 220.917969 L 75.769531 238.300781 C 75.769531 238.640625 75.90625 238.972656 76.148438 239.214844 C 76.390625 239.457031 76.722656 239.59375 77.0625 239.59375 L 91.894531 239.59375 C 92.234375 239.59375 92.566406 239.457031 92.808594 239.214844 C 93.050781 238.972656 93.1875 238.640625 93.1875 238.300781 L 91.894531 238.300781 "/>
<path style=" stroke:none;fill-rule:nonzero;fill:rgb(84.309387%,9.408569%,44.709778%);fill-opacity:1;" d="M 110.773438 276.316406 L 58.183594 276.316406 L 58.183594 267.117188 L 110.773438 267.117188 L 110.773438 276.316406 "/>
<g clip-path="url(#clip19)" clip-rule="nonzero">
<path style=" stroke:none;fill-rule:nonzero;fill:rgb(6.669617%,7.058716%,15.689087%);fill-opacity:1;" d="M 110.773438 276.316406 L 110.773438 275.027344 L 59.476562 275.027344 L 59.476562 268.410156 L 109.480469 268.410156 L 109.480469 276.316406 L 110.773438 276.316406 L 110.773438 275.027344 L 110.773438 276.316406 L 112.066406 276.316406 L 112.066406 267.117188 C 112.066406 266.777344 111.925781 266.445312 111.6875 266.207031 C 111.445312 265.964844 111.113281 265.828125 110.773438 265.828125 L 58.183594 265.828125 C 57.84375 265.828125 57.511719 265.964844 57.269531 266.207031 C 57.03125 266.445312 56.890625 266.777344 56.890625 267.117188 L 56.890625 276.316406 C 56.890625 276.65625 57.03125 276.992188 57.269531 277.230469 C 57.511719 277.472656 57.84375 277.609375 58.183594 277.609375 L 110.773438 277.609375 C 111.113281 277.609375 111.445312 277.472656 111.6875 277.230469 C 111.925781 276.992188 112.066406 276.65625 112.066406 276.316406 L 110.773438 276.316406 "/>
</g>
<path style=" stroke:none;fill-rule:nonzero;fill:rgb(22.749329%,61.569214%,59.999084%);fill-opacity:1;" d="M 227.613281 163.933594 C 225.386719 150.226562 221.722656 135.554688 218.121094 121.117188 C 217.539062 118.796875 216.964844 116.492188 216.398438 114.203125 C 218.710938 113.132812 221.207031 112.539062 223.761719 112.539062 C 230.960938 112.539062 235.445312 117.636719 235.816406 118.074219 C 235.960938 118.257812 236.054688 118.359375 236.222656 118.53125 C 241.5 123.8125 244.40625 130.832031 244.40625 138.296875 C 244.40625 149.746094 237.488281 159.609375 227.613281 163.933594 Z M 186.390625 140.835938 C 183.785156 126.960938 187.957031 114.316406 199.902344 99.835938 C 200.191406 99.488281 200.484375 99.132812 200.773438 98.773438 C 201.527344 102.1875 202.339844 105.660156 203.1875 109.179688 C 196.910156 114.921875 192.671875 123.148438 192.0625 132.277344 C 191.605469 139.199219 193.429688 145.878906 197.328125 151.597656 C 199.140625 154.25 202.761719 154.9375 205.417969 153.125 C 208.074219 151.3125 208.757812 147.691406 206.949219 145.039062 C 204.527344 141.488281 203.398438 137.34375 203.683594 133.046875 C 203.914062 129.542969 204.984375 126.210938 206.664062 123.292969 C 206.714844 123.507812 206.769531 123.722656 206.824219 123.9375 C 210.414062 138.3125 214.0625 152.933594 216.210938 166.269531 C 200.503906 166.179688 189.363281 156.6875 186.390625 140.835938 Z M 217.175781 38.210938 C 219.96875 36.753906 221.796875 36.121094 222.902344 35.847656 C 222.625 38.800781 220.683594 45.839844 213.617188 58.671875 C 211.785156 61.996094 209.765625 65.429688 207.636719 68.855469 C 207.582031 68.160156 207.53125 67.46875 207.492188 66.785156 C 206.273438 46.332031 212.433594 40.683594 217.175781 38.210938 Z M 256.046875 138.296875 C 256.046875 127.804688 251.996094 117.933594 244.628906 110.472656 C 243.15625 108.777344 235.671875 100.902344 223.761719 100.902344 C 220.246094 100.902344 216.828125 101.554688 213.621094 102.746094 C 212.292969 97.078125 211.085938 91.570312 210.089844 86.285156 C 215.558594 78.414062 220.878906 69.820312 225.019531 62.0625 C 228.859375 54.871094 231.574219 48.652344 233.097656 43.585938 C 234.5 38.917969 235.933594 32.179688 232.195312 27.566406 C 230.921875 25.996094 227.964844 23.457031 222.449219 24.113281 C 219.480469 24.464844 215.992188 25.703125 211.792969 27.890625 C 199.863281 34.109375 194.65625 47.058594 195.871094 67.476562 C 196.171875 72.578125 196.847656 77.945312 197.777344 83.535156 C 195.457031 86.730469 193.144531 89.738281 190.921875 92.429688 C 176.773438 109.578125 171.695312 125.640625 174.949219 142.984375 C 176.910156 153.460938 181.808594 162.257812 189.097656 168.425781 C 196.4375 174.628906 205.886719 177.90625 216.429688 177.90625 C 216.851562 177.90625 217.273438 177.902344 217.695312 177.886719 C 218.421875 186.082031 218.289062 193.519531 216.847656 199.746094 C 215.863281 203.988281 212.683594 207.105469 208.738281 207.691406 C 206.648438 208 204.617188 207.570312 202.773438 206.46875 C 205.511719 204.074219 207.246094 200.554688 207.246094 196.632812 C 207.246094 189.410156 201.386719 183.554688 194.164062 183.554688 C 186.941406 183.554688 181.085938 189.410156 181.085938 196.632812 C 181.085938 201.921875 184.226562 206.476562 188.75 208.535156 C 191.214844 212.320312 194.390625 215.273438 198.007812 217.128906 C 200.972656 218.648438 204.183594 219.425781 207.433594 219.425781 C 208.4375 219.425781 209.441406 219.351562 210.445312 219.203125 C 219.15625 217.910156 226.121094 211.304688 228.1875 202.371094 C 229.988281 194.59375 230.109375 185.566406 229.175781 175.804688 C 244.785156 170.488281 256.046875 155.683594 256.046875 138.296875 "/>
<g clip-path="url(#clip20)" clip-rule="nonzero">
<path style=" stroke:none;fill-rule:nonzero;fill:rgb(6.669617%,7.058716%,15.689087%);fill-opacity:1;" d="M 227.613281 163.933594 L 228.890625 163.726562 C 226.648438 149.941406 222.976562 135.242188 219.371094 120.808594 C 218.792969 118.484375 218.21875 116.179688 217.652344 113.890625 L 216.398438 114.203125 L 216.9375 115.375 C 219.097656 114.378906 221.40625 113.832031 223.761719 113.832031 C 225.410156 113.832031 226.898438 114.121094 228.21875 114.566406 C 230.195312 115.234375 231.800781 116.253906 232.9375 117.144531 C 234.074219 118.035156 234.734375 118.796875 234.832031 118.910156 L 235.816406 118.074219 L 234.796875 118.871094 C 234.882812 118.980469 234.96875 119.082031 235.050781 119.175781 C 235.136719 119.265625 235.214844 119.347656 235.304688 119.4375 L 235.308594 119.441406 C 237.828125 121.964844 239.777344 124.898438 241.101562 128.089844 C 242.421875 131.28125 243.113281 134.730469 243.113281 138.296875 C 243.113281 143.757812 241.464844 148.835938 238.640625 153.070312 C 235.808594 157.304688 231.800781 160.691406 227.09375 162.75 L 227.613281 163.933594 L 228.890625 163.726562 L 227.613281 163.933594 L 228.128906 165.117188 C 233.296875 162.855469 237.6875 159.148438 240.789062 154.503906 C 243.890625 149.863281 245.699219 144.28125 245.699219 138.296875 C 245.699219 134.394531 244.9375 130.605469 243.488281 127.101562 C 242.039062 123.59375 239.894531 120.375 237.140625 117.617188 L 237.140625 117.621094 C 237.0625 117.539062 237.011719 117.484375 236.96875 117.441406 C 236.925781 117.394531 236.890625 117.351562 236.835938 117.28125 L 236.800781 117.238281 C 236.558594 116.953125 235.265625 115.484375 233.046875 114.054688 C 231.941406 113.34375 230.597656 112.644531 229.042969 112.117188 C 227.488281 111.59375 225.714844 111.246094 223.761719 111.246094 C 221.003906 111.246094 218.324219 111.890625 215.855469 113.03125 C 215.292969 113.289062 214.992188 113.910156 215.140625 114.511719 C 215.710938 116.804688 216.285156 119.109375 216.863281 121.433594 C 220.46875 135.863281 224.121094 150.507812 226.339844 164.140625 C 226.402344 164.539062 226.644531 164.878906 226.996094 165.066406 C 227.347656 165.261719 227.765625 165.277344 228.128906 165.117188 Z M 186.390625 140.835938 L 187.660156 140.597656 C 187.179688 138.042969 186.9375 135.539062 186.9375 133.058594 C 186.941406 127.761719 188.039062 122.578125 190.332031 117.25 C 192.621094 111.925781 196.113281 106.457031 200.902344 100.660156 L 200.898438 100.660156 C 201.191406 100.304688 201.484375 99.945312 201.777344 99.582031 L 200.773438 98.769531 L 199.511719 99.050781 C 200.269531 102.476562 201.082031 105.957031 201.929688 109.484375 L 203.1875 109.179688 L 202.316406 108.226562 C 199.058594 111.207031 196.332031 114.828125 194.339844 118.890625 C 192.347656 122.953125 191.089844 127.457031 190.777344 132.191406 C 190.726562 132.917969 190.703125 133.640625 190.703125 134.363281 C 190.703125 140.789062 192.609375 146.976562 196.261719 152.324219 C 196.949219 153.332031 197.855469 154.113281 198.867188 154.632812 C 199.882812 155.15625 201.007812 155.429688 202.144531 155.429688 C 203.523438 155.429688 204.925781 155.027344 206.148438 154.191406 C 207.152344 153.503906 207.933594 152.601562 208.457031 151.585938 C 208.980469 150.570312 209.25 149.449219 209.25 148.3125 C 209.253906 146.933594 208.847656 145.53125 208.015625 144.308594 C 205.984375 141.332031 204.929688 137.921875 204.929688 134.347656 C 204.929688 133.945312 204.945312 133.539062 204.972656 133.132812 C 205.1875 129.835938 206.199219 126.691406 207.785156 123.933594 L 206.664062 123.289062 L 205.40625 123.597656 C 205.464844 123.820312 205.519531 124.035156 205.570312 124.25 L 205.570312 124.253906 C 209.160156 138.621094 212.800781 153.21875 214.9375 166.472656 L 216.210938 166.269531 L 216.21875 164.976562 C 212.421875 164.957031 208.921875 164.367188 205.769531 163.265625 C 203.402344 162.441406 201.230469 161.328125 199.261719 159.949219 C 196.3125 157.878906 193.824219 155.203125 191.863281 151.964844 C 189.902344 148.726562 188.472656 144.921875 187.660156 140.597656 L 185.121094 141.074219 C 185.886719 145.160156 187.179688 148.855469 188.960938 152.105469 C 191.628906 156.980469 195.390625 160.847656 200.015625 163.484375 C 204.640625 166.121094 210.121094 167.527344 216.207031 167.558594 C 216.582031 167.5625 216.949219 167.394531 217.195312 167.109375 C 217.441406 166.820312 217.546875 166.4375 217.488281 166.0625 C 215.328125 152.648438 211.667969 138 208.078125 123.625 L 208.078125 123.628906 C 208.023438 123.40625 207.972656 123.191406 207.917969 122.984375 C 207.792969 122.472656 207.367188 122.085938 206.847656 122.011719 C 206.324219 121.9375 205.804688 122.191406 205.542969 122.648438 C 203.773438 125.726562 202.636719 129.25 202.390625 132.960938 C 202.363281 133.425781 202.34375 133.886719 202.34375 134.347656 C 202.34375 138.433594 203.5625 142.371094 205.878906 145.765625 C 206.414062 146.550781 206.667969 147.433594 206.667969 148.3125 C 206.667969 149.035156 206.492188 149.753906 206.160156 150.398438 C 205.824219 151.046875 205.335938 151.617188 204.691406 152.058594 C 203.90625 152.589844 203.023438 152.84375 202.144531 152.84375 C 201.421875 152.84375 200.703125 152.671875 200.054688 152.339844 C 199.410156 152.003906 198.835938 151.515625 198.398438 150.867188 C 195.035156 145.9375 193.292969 140.28125 193.289062 134.363281 C 193.289062 133.699219 193.3125 133.03125 193.355469 132.363281 C 193.644531 127.972656 194.8125 123.796875 196.660156 120.027344 C 198.507812 116.257812 201.039062 112.894531 204.058594 110.136719 C 204.40625 109.816406 204.550781 109.335938 204.441406 108.878906 C 203.597656 105.363281 202.789062 101.898438 202.035156 98.492188 C 201.929688 98.007812 201.550781 97.625 201.070312 97.515625 C 200.585938 97.398438 200.078125 97.574219 199.769531 97.957031 C 199.476562 98.316406 199.191406 98.667969 198.910156 99.011719 L 198.90625 99.011719 C 194.007812 104.949219 190.371094 110.617188 187.957031 116.226562 C 185.539062 121.839844 184.351562 127.398438 184.355469 133.058594 C 184.355469 135.707031 184.613281 138.371094 185.121094 141.074219 Z M 217.175781 38.210938 L 217.769531 39.359375 C 220.496094 37.9375 222.238281 37.34375 223.214844 37.101562 L 222.902344 35.847656 L 221.617188 35.722656 C 221.554688 36.371094 221.394531 37.304688 221.078125 38.527344 C 220.601562 40.363281 219.769531 42.859375 218.398438 46.082031 C 217.023438 49.308594 215.117188 53.269531 212.484375 58.050781 C 210.667969 61.351562 208.660156 64.765625 206.539062 68.171875 L 207.636719 68.855469 L 208.925781 68.753906 C 208.871094 68.0625 208.820312 67.382812 208.78125 66.707031 C 208.675781 64.953125 208.625 63.308594 208.625 61.773438 C 208.625 57.746094 208.96875 54.453125 209.53125 51.753906 C 209.949219 49.730469 210.5 48.042969 211.121094 46.628906 C 212.058594 44.507812 213.160156 42.996094 214.304688 41.855469 C 215.445312 40.71875 216.632812 39.949219 217.769531 39.359375 L 217.175781 38.210938 L 216.574219 37.066406 C 215.421875 37.667969 214.164062 38.460938 212.9375 39.585938 C 212.015625 40.433594 211.117188 41.464844 210.292969 42.730469 C 209.054688 44.628906 207.988281 47.050781 207.238281 50.164062 C 206.484375 53.277344 206.042969 57.082031 206.042969 61.773438 C 206.042969 63.367188 206.09375 65.058594 206.203125 66.859375 L 206.203125 66.863281 C 206.242188 67.554688 206.292969 68.253906 206.347656 68.957031 C 206.390625 69.515625 206.789062 69.980469 207.332031 70.109375 C 207.871094 70.242188 208.4375 70.011719 208.734375 69.539062 C 210.875 66.09375 212.90625 62.640625 214.75 59.296875 C 218.304688 52.835938 220.585938 47.8125 222.015625 44.007812 C 222.730469 42.105469 223.234375 40.503906 223.582031 39.179688 C 223.921875 37.851562 224.109375 36.796875 224.191406 35.96875 C 224.230469 35.550781 224.0625 35.140625 223.746094 34.867188 C 223.429688 34.59375 223 34.492188 222.59375 34.59375 C 221.359375 34.902344 219.441406 35.574219 216.578125 37.066406 L 216.574219 37.066406 Z M 256.046875 138.296875 L 257.339844 138.296875 C 257.339844 132.882812 256.296875 127.625 254.296875 122.757812 C 252.296875 117.890625 249.347656 113.414062 245.550781 109.566406 L 244.628906 110.472656 L 245.605469 109.628906 C 244.808594 108.710938 242.484375 106.226562 238.785156 103.949219 C 236.9375 102.8125 234.746094 101.726562 232.230469 100.925781 C 229.71875 100.125 226.882812 99.605469 223.761719 99.605469 C 220.089844 99.605469 216.515625 100.289062 213.171875 101.535156 L 213.621094 102.75 L 214.878906 102.453125 C 213.550781 96.796875 212.347656 91.304688 211.359375 86.046875 L 210.089844 86.285156 L 211.148438 87.023438 C 216.644531 79.113281 221.992188 70.484375 226.160156 62.671875 C 230.023438 55.425781 232.773438 49.148438 234.335938 43.957031 C 234.710938 42.707031 235.09375 41.296875 235.382812 39.800781 C 235.671875 38.308594 235.871094 36.726562 235.871094 35.125 C 235.871094 33.679688 235.707031 32.214844 235.292969 30.792969 C 234.878906 29.371094 234.203125 27.992188 233.199219 26.753906 C 232.550781 25.953125 231.527344 24.941406 230.042969 24.128906 C 229.296875 23.722656 228.4375 23.367188 227.464844 23.117188 C 226.488281 22.863281 225.394531 22.714844 224.1875 22.714844 C 223.585938 22.714844 222.957031 22.75 222.296875 22.828125 C 220.695312 23.019531 218.988281 23.441406 217.152344 24.09375 C 215.3125 24.75 213.339844 25.628906 211.195312 26.746094 C 208.378906 28.214844 205.902344 30.050781 203.785156 32.265625 C 202.203125 33.921875 200.816406 35.785156 199.640625 37.855469 C 197.871094 40.957031 196.5625 44.511719 195.699219 48.511719 C 194.832031 52.515625 194.40625 56.96875 194.40625 61.882812 C 194.40625 63.710938 194.464844 65.597656 194.582031 67.550781 C 194.890625 72.710938 195.566406 78.125 196.503906 83.746094 L 197.777344 83.535156 L 196.730469 82.773438 C 194.425781 85.953125 192.125 88.9375 189.925781 91.605469 C 184.160156 98.597656 179.851562 105.441406 176.992188 112.300781 C 174.125 119.164062 172.707031 126.039062 172.707031 133.039062 C 172.707031 136.402344 173.035156 139.792969 173.675781 143.222656 C 174.683594 148.585938 176.445312 153.539062 178.898438 157.949219 C 181.347656 162.359375 184.496094 166.222656 188.265625 169.410156 C 192.058594 172.617188 196.394531 175.066406 201.136719 176.714844 C 205.878906 178.359375 211.023438 179.199219 216.429688 179.199219 C 216.863281 179.199219 217.300781 179.191406 217.734375 179.179688 L 217.695312 177.886719 L 216.410156 178 C 216.683594 181.117188 216.835938 184.117188 216.835938 186.972656 C 216.835938 191.546875 216.449219 195.746094 215.589844 199.457031 C 215.152344 201.34375 214.230469 202.960938 213 204.167969 C 211.769531 205.371094 210.238281 206.160156 208.550781 206.410156 C 208.167969 206.46875 207.792969 206.496094 207.421875 206.496094 C 206.726562 206.496094 206.050781 206.402344 205.386719 206.210938 C 204.722656 206.023438 204.070312 205.738281 203.433594 205.359375 L 202.773438 206.46875 L 203.625 207.441406 C 205.128906 206.128906 206.355469 204.503906 207.207031 202.667969 C 208.0625 200.835938 208.535156 198.785156 208.535156 196.632812 C 208.535156 194.652344 208.136719 192.757812 207.40625 191.039062 C 206.316406 188.460938 204.492188 186.265625 202.199219 184.71875 C 199.90625 183.167969 197.136719 182.261719 194.160156 182.261719 C 192.183594 182.261719 190.289062 182.667969 188.570312 183.394531 C 185.988281 184.484375 183.796875 186.304688 182.246094 188.597656 C 180.699219 190.890625 179.792969 193.660156 179.792969 196.632812 C 179.792969 199.535156 180.65625 202.246094 182.140625 204.503906 C 183.625 206.765625 185.730469 208.578125 188.214844 209.710938 L 188.75 208.535156 L 187.667969 209.238281 C 190.238281 213.191406 193.574219 216.308594 197.417969 218.277344 L 197.417969 218.28125 C 200.5625 219.890625 203.976562 220.71875 207.433594 220.71875 C 208.5 220.71875 209.570312 220.640625 210.636719 220.480469 C 215.257812 219.796875 219.425781 217.699219 222.695312 214.589844 C 225.972656 211.484375 228.359375 207.371094 229.445312 202.664062 C 230.5625 197.847656 231.042969 192.605469 231.042969 187.042969 C 231.042969 183.386719 230.835938 179.589844 230.460938 175.679688 L 229.175781 175.804688 L 229.589844 177.027344 C 237.652344 174.28125 244.585938 169.085938 249.507812 162.335938 C 254.429688 155.585938 257.339844 147.269531 257.339844 138.296875 L 254.753906 138.296875 C 254.753906 146.707031 252.035156 154.484375 247.421875 160.816406 C 242.808594 167.140625 236.308594 172.011719 228.753906 174.582031 C 228.191406 174.773438 227.832031 175.332031 227.886719 175.929688 C 228.253906 179.765625 228.457031 183.484375 228.457031 187.042969 C 228.457031 192.457031 227.988281 197.511719 226.929688 202.078125 C 225.953125 206.304688 223.820312 209.960938 220.917969 212.714844 C 218.011719 215.46875 214.34375 217.320312 210.257812 217.925781 C 209.316406 218.0625 208.371094 218.132812 207.433594 218.132812 C 204.390625 218.132812 201.382812 217.40625 198.59375 215.980469 L 198.597656 215.980469 C 195.203125 214.242188 192.1875 211.449219 189.832031 207.828125 C 189.699219 207.625 189.507812 207.460938 189.285156 207.359375 C 187.25 206.433594 185.519531 204.941406 184.300781 203.085938 C 183.085938 201.230469 182.378906 199.019531 182.375 196.632812 C 182.378906 195.003906 182.707031 193.457031 183.300781 192.046875 C 184.199219 189.933594 185.695312 188.128906 187.574219 186.859375 C 189.457031 185.589844 191.71875 184.847656 194.160156 184.847656 C 195.792969 184.847656 197.34375 185.175781 198.75 185.773438 C 200.867188 186.667969 202.667969 188.164062 203.9375 190.042969 C 205.210938 191.929688 205.949219 194.1875 205.953125 196.632812 C 205.953125 198.402344 205.5625 200.078125 204.863281 201.582031 C 204.164062 203.082031 203.15625 204.417969 201.921875 205.5 C 201.609375 205.773438 201.449219 206.175781 201.488281 206.585938 C 201.523438 207 201.757812 207.367188 202.113281 207.582031 C 202.929688 208.066406 203.789062 208.445312 204.679688 208.699219 C 205.570312 208.949219 206.488281 209.078125 207.421875 209.078125 C 207.917969 209.078125 208.425781 209.042969 208.929688 208.96875 C 211.183594 208.636719 213.214844 207.574219 214.808594 206.011719 C 216.402344 204.449219 217.5625 202.390625 218.105469 200.039062 C 219.023438 196.078125 219.417969 191.691406 219.417969 186.972656 C 219.417969 184.027344 219.265625 180.953125 218.984375 177.773438 C 218.921875 177.089844 218.339844 176.574219 217.65625 176.597656 C 217.25 176.609375 216.839844 176.613281 216.429688 176.613281 C 211.289062 176.613281 206.4375 175.816406 201.984375 174.273438 C 197.53125 172.726562 193.480469 170.4375 189.933594 167.4375 C 186.410156 164.457031 183.464844 160.84375 181.152344 156.691406 C 178.847656 152.542969 177.175781 147.855469 176.214844 142.746094 C 175.601562 139.464844 175.292969 136.234375 175.292969 133.039062 C 175.296875 126.386719 176.632812 119.871094 179.375 113.296875 C 182.117188 106.726562 186.277344 100.089844 191.921875 93.25 C 194.160156 90.535156 196.488281 87.507812 198.820312 84.292969 C 199.027344 84.011719 199.109375 83.660156 199.050781 83.320312 C 198.125 77.765625 197.460938 72.441406 197.164062 67.398438 C 197.050781 65.492188 196.992188 63.65625 196.992188 61.882812 C 196.992188 57.648438 197.320312 53.800781 197.964844 50.339844 C 198.9375 45.144531 200.628906 40.828125 203.023438 37.308594 C 204.21875 35.550781 205.59375 33.988281 207.152344 32.613281 C 208.710938 31.238281 210.453125 30.046875 212.390625 29.035156 L 212.386719 29.035156 C 214.449219 27.964844 216.320312 27.132812 218.015625 26.53125 C 219.710938 25.929688 221.234375 25.558594 222.601562 25.394531 C 223.164062 25.328125 223.691406 25.296875 224.1875 25.296875 C 225.183594 25.296875 226.054688 25.421875 226.816406 25.617188 C 227.960938 25.914062 228.867188 26.378906 229.582031 26.882812 C 230.300781 27.386719 230.828125 27.929688 231.191406 28.378906 C 231.960938 29.332031 232.480469 30.378906 232.8125 31.515625 C 233.144531 32.652344 233.285156 33.871094 233.285156 35.125 C 233.285156 36.511719 233.113281 37.933594 232.84375 39.3125 C 232.578125 40.6875 232.21875 42.011719 231.859375 43.214844 C 230.375 48.15625 227.691406 54.3125 223.878906 61.457031 C 219.769531 69.15625 214.46875 77.71875 209.027344 85.546875 C 208.832031 85.832031 208.753906 86.183594 208.820312 86.523438 C 209.820312 91.835938 211.03125 97.363281 212.363281 103.042969 C 212.445312 103.402344 212.683594 103.710938 213.011719 103.886719 C 213.335938 104.0625 213.726562 104.085938 214.074219 103.957031 C 217.144531 102.816406 220.40625 102.191406 223.761719 102.191406 C 226.597656 102.191406 229.160156 102.660156 231.445312 103.386719 C 234.875 104.480469 237.671875 106.164062 239.742188 107.730469 C 241.808594 109.292969 243.148438 110.738281 243.652344 111.320312 L 243.710938 111.382812 C 247.273438 114.996094 250.035156 119.183594 251.90625 123.738281 C 253.777344 128.296875 254.753906 133.21875 254.753906 138.296875 L 256.046875 138.296875 "/>
</g>
</g>
</svg>
