<svg id="fe1cf379-4a7f-4187-a7ee-30bde886052e" data-name="Layer 1" xmlns="http://www.w3.org/2000/svg" width="700.84998" height="673.49605" viewBox="0 0 700.84998 673.49605"><path d="M544.25922,253.69377H541.012V164.7375A51.48546,51.48546,0,0,0,489.52659,113.252h-188.466A51.48546,51.48546,0,0,0,249.575,164.73734V652.75855a51.48548,51.48548,0,0,0,51.48542,51.48552H489.52634A51.48548,51.48548,0,0,0,541.012,652.75875V317.01438h3.24726Z" transform="translate(-249.57501 -113.25198)" fill="#3f3d56"/><path d="M491.60385,126.64672h-24.601a18.267,18.267,0,0,1-16.91268,25.16586H342.1204a18.26691,18.26691,0,0,1-16.91268-25.16589H302.23028a38.44878,38.44878,0,0,0-38.44881,38.44873V652.40055a38.44878,38.44878,0,0,0,38.44876,38.44881H491.60385a38.44878,38.44878,0,0,0,38.44881-38.44876h0V165.09546A38.44875,38.44875,0,0,0,491.60385,126.64672Z" transform="translate(-249.57501 -113.25198)" fill="#fff"/><path d="M484.34365,331.21579H309.49048a4.41288,4.41288,0,0,1-4.40806-4.40806V223.95292a4.41288,4.41288,0,0,1,4.40806-4.40806H484.34365a4.41288,4.41288,0,0,1,4.40806,4.40806V326.80773A4.41288,4.41288,0,0,1,484.34365,331.21579Z" transform="translate(-249.57501 -113.25198)" fill="#fff"/><path d="M425.95152,274.45658a9.726,9.726,0,0,0-13.97393-.24976l-49.2083,49.20866a6.94842,6.94842,0,0,1-9.80048.01471l-7.28794-7.27332a9.7025,9.7025,0,0,0-13.72426,0l-14.10523,14.12047H475.98275v-2.013Z" transform="translate(-249.57501 -113.25198)" fill="#f163ff"/><path d="M484.34352,332.71584h-174.853a5.91484,5.91484,0,0,1-5.90808-5.9082V223.95315a5.91484,5.91484,0,0,1,5.90808-5.9082h174.853a5.91487,5.91487,0,0,1,5.9082,5.9082V326.80764A5.91487,5.91487,0,0,1,484.34352,332.71584ZM309.49049,221.045a2.91148,2.91148,0,0,0-2.90808,2.9082V326.80764a2.91148,2.91148,0,0,0,2.90808,2.9082h174.853a2.91159,2.91159,0,0,0,2.9082-2.9082V223.95315a2.91159,2.91159,0,0,0-2.9082-2.9082Z" transform="translate(-249.57501 -113.25198)" fill="#cbcbcb"/><path d="M473.5796,646.10237a21.752,21.752,0,1,1,21.752-21.752A21.77663,21.77663,0,0,1,473.5796,646.10237Zm0-41.83071a20.07874,20.07874,0,1,0,20.07874,20.07874A20.10162,20.10162,0,0,0,473.5796,604.27166Z" transform="translate(-249.57501 -113.25198)" fill="#cbcbcb"/><path d="M464.18439,631.6739a.69581.69581,0,0,1-.34855-1.29838l10.436-6.02515-10.436-6.02515a.69584.69584,0,0,1,.69573-1.2053l11.47959,6.6278a.696.696,0,0,1,0,1.2053l-11.47959,6.6278A.69273.69273,0,0,1,464.18439,631.6739Z" transform="translate(-249.57501 -113.25198)" fill="#cbcbcb"/><path d="M479.57678,634.09065a.69576.69576,0,0,1-.69573-.69573v-18.089a.69574.69574,0,0,1,1.39147,0v18.089A.69577.69577,0,0,1,479.57678,634.09065Z" transform="translate(-249.57501 -113.25198)" fill="#cbcbcb"/><path id="e3ce330b-7810-427f-abc7-876c0b1e229e" data-name="Path 680" d="M352.27057,375.02334a3.268,3.268,0,1,0,0,6.536h89.293a3.268,3.268,0,0,0,0-6.536Z" transform="translate(-249.57501 -113.25198)" fill="#ccc"/><path id="a0eaab81-8858-470f-850b-5b5bdea12a20" data-name="Path 680" d="M301.77057,420.02334a3.268,3.268,0,1,0,0,6.536h190.293a3.268,3.268,0,0,0,0-6.536Z" transform="translate(-249.57501 -113.25198)" fill="#ccc"/><path id="ee8cc921-a5a0-4964-a61a-9ba4926e4da3" data-name="Path 680" d="M301.77057,446.02334a3.268,3.268,0,1,0,0,6.536h190.293a3.268,3.268,0,0,0,0-6.536Z" transform="translate(-249.57501 -113.25198)" fill="#ccc"/><path id="a10d2789-177b-4a06-b4a9-e144bb78656d" data-name="Path 680" d="M301.77057,472.02334a3.268,3.268,0,1,0,0,6.536h190.293a3.268,3.268,0,0,0,0-6.536Z" transform="translate(-249.57501 -113.25198)" fill="#ccc"/><path id="abaf8d8e-542f-4c38-bb70-bc98f5a2b3ae" data-name="Path 680" d="M301.77057,498.02334a3.268,3.268,0,1,0,0,6.536h190.293a3.268,3.268,0,0,0,0-6.536Z" transform="translate(-249.57501 -113.25198)" fill="#ccc"/><path id="bb510fc4-24f2-4f73-aad4-433372c1ffce" data-name="Path 680" d="M301.77057,524.02334a3.268,3.268,0,1,0,0,6.536h190.293a3.268,3.268,0,0,0,0-6.536Z" transform="translate(-249.57501 -113.25198)" fill="#ccc"/><path id="bc4545ef-9617-49fd-a774-25690e5815c1" data-name="Path 680" d="M301.77057,550.02334a3.268,3.268,0,1,0,0,6.536h190.293a3.268,3.268,0,0,0,0-6.536Z" transform="translate(-249.57501 -113.25198)" fill="#ccc"/><path d="M763.8541,579.29283a9.07356,9.07356,0,0,0-.00205-13.91321l-6.74578-118.7179L737.85979,451.013l12.724,115.944a9.12273,9.12273,0,0,0,13.27027,12.33583Z" transform="translate(-249.57501 -113.25198)" fill="#9f616a"/><path d="M842.00577,594.7518a9.07352,9.07352,0,0,1-.50167-13.90416l2.44325-118.8843,19.3914,3.65166-8.518,116.32861a9.12273,9.12273,0,0,1-12.815,12.80819Z" transform="translate(-249.57501 -113.25198)" fill="#9f616a"/><polygon points="602.692 658.185 617.792 658.184 622.099 622.957 602.689 622.958 602.692 658.185" fill="#9f616a"/><path d="M848.41488,766.50672l29.73829-.00121h.0012a18.95259,18.95259,0,0,1,18.95157,18.95127v.61586l-48.69016.0018Z" transform="translate(-249.57501 -113.25198)" fill="#2f2e41"/><polygon points="508.465 658.185 523.565 658.184 527.872 599.939 508.462 599.941 508.465 658.185" fill="#9f616a"/><path d="M754.188,766.50672l29.7383-.00121h.0012a18.95259,18.95259,0,0,1,18.95157,18.95127v.61586l-48.69016.0018Z" transform="translate(-249.57501 -113.25198)" fill="#2f2e41"/><circle cx="570.49735" cy="263.50708" r="24.70454" fill="#9f616a"/><path d="M850.26682,427.74722s10.97978.915,11.89478,6.40488,0,21.95961,0,21.95961,7.31986,21.9596,0,27.44949-26.53454,6.4049-26.53454,6.4049Z" transform="translate(-249.57501 -113.25198)" fill="#f163ff"/><path d="M756.93849,552.185l-10.06482,16.4697s3.65993,72.28369,4.57489,74.11366a5.50126,5.50126,0,0,1,.915,3.65992v10.06482l2.745,87.83844s-7.31985,3.65992,1.83,6.40489,21.04461,3.65993,22.87457-5.48989,1.91685-85.3761,1.83-87.83839l.915-3.65992,14.63975-53.984,33.85435,75.02855,20.12965,84.1785s30.46517,3.51807,24.97528-8.37672-18.57039-100.50631-18.57039-100.50631-2.745-9.14986-2.745-10.97983-.915-2.745-.915-4.57493-.915-7.31985-.915-7.31985l-6.4049-57.644Z" transform="translate(-249.57501 -113.25198)" fill="#2f2e41"/><path d="M795.36777,405.38271s.54935,1.36531,41.2182,6.43232c0,0,22.83066,15.01719,23.74562,18.67712s-17.38467,50.32409-17.38467,50.32409l-1.83,35.68435s9.14571,15.43,4.57493,63.13386c-14.29758.79432-72.18915-18.02806-86.46592-26.077-2.16893-1.2228-7.22441,4.16783-6.8624,3.20245,2.745-7.31988,0-6.40489,2.745-8.23486s7.31985-65.8788,7.31985-65.8788-5.48989-69.53874.915-71.36871S795.36777,405.38271,795.36777,405.38271Z" transform="translate(-249.57501 -113.25198)" fill="#f163ff"/><path d="M766.08831,412.19253s-10.97978-.915-13.72475,8.23485-25.61949,43.91918-21.0446,47.57911,39.34428,16.4697,40.25929,15.55471S766.08831,412.19253,766.08831,412.19253Z" transform="translate(-249.57501 -113.25198)" fill="#f163ff"/><path d="M848.84094,361.00515c-1.03662-3.85941-2.49785-7.71716-5.47475-10.3832a17.04456,17.04456,0,0,0-10.92192-4.30111,33.90945,33.90945,0,0,0-30.5826-1.73448,5.59583,5.59583,0,0,0-2.436-2.4834q-.44069,3.81117-.88155,7.6223-1.70217-1.281-3.40451-2.562-.084,2.25554-.16788,4.5111-1.56018-1.34136-3.12037-2.68271c-.22162,5.32508,4.20984,9.93553,9.22081,11.75083s10.50573,1.48037,15.82945,1.22872c2.629-.12428,5.62331-.07933,7.39782,1.86456,1.85881,2.03644,1.5083,5.15808,1.55395,7.915.06428,3.87729,4.0446,1.97822,6.04091,5.30274.716,1.19207,1.57485,2.41785,1.54868,3.80814a8.89859,8.89859,0,0,1-1.33936,3.53248c-1.46966,3.03533-4.392,12.47908-2.99692,15.54944q3.87294-2.16741,7.74606-4.33487S853.8591,379.687,848.84094,361.00515Z" transform="translate(-249.57501 -113.25198)" fill="#2f2e41"/><path d="M949.425,786.748h-307a1,1,0,0,1,0-2h307a1,1,0,0,1,0,2Z" transform="translate(-249.57501 -113.25198)" fill="#cbcbcb"/><path d="M690.82694,785.1472s-14.93658-27.57-51.05858-15.64855Z" transform="translate(-249.57501 -113.25198)" fill="#f1f1f1"/><path d="M691.72758,784.47349s-18.472-23.47977,8.18954-52.7711Z" transform="translate(-249.57501 -113.25198)" fill="#f1f1f1"/></svg>