<svg width="888" height="742" viewBox="0 0 888 742" fill="none" xmlns="http://www.w3.org/2000/svg">
<g clip-path="url(#clip0)">
<path d="M365.896 174.38H361.864V63.9273C361.864 55.5322 360.211 47.2193 356.998 39.4633C353.785 31.7073 349.077 24.66 343.14 18.7238C337.204 12.7876 330.157 8.07875 322.401 4.86612C314.645 1.65348 306.332 -2.62641e-05 297.937 3.12895e-10H63.9274C55.5323 -2.62641e-05 47.2195 1.65348 39.4634 4.86612C31.7074 8.07876 24.6601 12.7876 18.7239 18.7238C12.7877 24.66 8.0788 31.7073 4.86615 39.4633C1.6535 47.2194 -1.31322e-05 55.5322 0 63.9273V669.881C-7.87929e-06 678.276 1.65351 686.589 4.86617 694.345C8.07882 702.101 12.7877 709.148 18.7239 715.084C24.6601 721.021 31.7074 725.729 39.4634 728.942C47.2195 732.155 55.5323 733.808 63.9274 733.808H297.937C306.332 733.808 314.645 732.155 322.401 728.942C330.157 725.729 337.204 721.021 343.14 715.084C349.077 709.148 353.785 702.101 356.998 694.345C360.211 686.589 361.864 678.276 361.864 669.881V253.003H365.896V174.38Z" fill="#E6E6E6"/>
<path d="M300.515 16.6318H269.969C271.374 20.0758 271.91 23.8123 271.531 27.5123C271.151 31.2123 269.868 34.7622 267.793 37.8493C265.718 40.9363 262.916 43.4658 259.634 45.2148C256.351 46.9639 252.689 47.8789 248.97 47.8792H114.909C111.189 47.8789 107.527 46.9639 104.244 45.2149C100.962 43.4658 98.1599 40.9363 96.0853 37.8493C94.0106 34.7622 92.727 31.2123 92.3475 27.5123C91.9679 23.8123 92.5041 20.0758 93.9089 16.6318H65.3789C59.1095 16.6318 52.9016 17.8667 47.1095 20.2658C41.3174 22.665 36.0546 26.1815 31.6215 30.6145C27.1884 35.0476 23.6719 40.3104 21.2727 46.1025C18.8735 51.8946 17.6387 58.1026 17.6387 64.3719V669.437C17.6387 675.706 18.8735 681.914 21.2727 687.706C23.6719 693.498 27.1884 698.761 31.6215 703.194C36.0545 707.627 41.3174 711.144 47.1095 713.543C52.9016 715.942 59.1095 717.177 65.3789 717.177H300.515C306.785 717.177 312.993 715.942 318.785 713.543C324.577 711.144 329.84 707.627 334.273 703.194C338.706 698.761 342.222 693.498 344.622 687.706C347.021 681.914 348.256 675.706 348.256 669.437V64.3719C348.256 58.1026 347.021 51.8946 344.622 46.1025C342.222 40.3104 338.706 35.0476 334.273 30.6145C329.84 26.1815 324.577 22.665 318.785 20.2658C312.993 17.8667 306.785 16.6318 300.515 16.6318V16.6318Z" fill="white"/>
<path d="M113.672 139.635H99.6328C99.1392 139.635 98.6657 139.831 98.3167 140.18C97.9676 140.529 97.7715 141.002 97.7715 141.496V147.658C97.7715 148.152 97.9676 148.625 98.3167 148.975C98.6657 149.324 99.1392 149.52 99.6328 149.52H101.959V158.753H111.346V149.52H113.672C114.166 149.52 114.639 149.324 114.988 148.975C115.337 148.625 115.533 148.152 115.533 147.658V141.496C115.533 141.002 115.337 140.529 114.988 140.18C114.639 139.831 114.166 139.635 113.672 139.635V139.635Z" fill="#E6E6E6"/>
<path d="M127.734 196.031C119.136 183.45 114.74 168.47 115.177 153.238C115.185 152.886 115.071 152.543 114.854 152.266C114.638 151.989 114.332 151.796 113.989 151.719V149.056H99.1615V151.682H98.9572C98.5537 151.682 98.167 151.843 97.882 152.129C97.5971 152.415 97.4373 152.802 97.4378 153.205C97.4378 153.242 97.4392 153.279 97.442 153.316C98.6101 169.599 94.6656 184.202 85.6086 197.124C85.0874 197.866 84.8211 198.758 84.8497 199.665L86.471 249.816C86.51 250.935 86.9795 251.995 87.7815 252.776C88.5835 253.556 89.6561 253.997 90.7754 254.006H124.313C125.445 253.997 126.528 253.546 127.333 252.749C128.137 251.953 128.599 250.874 128.62 249.742L129.244 201.049C129.263 199.262 128.736 197.512 127.734 196.031Z" fill="#E6E6E6"/>
<path d="M122.425 212.69H93.2334C92.8013 212.69 92.3743 212.784 91.9816 212.964C91.589 213.145 91.2401 213.408 90.9587 213.736C90.6773 214.064 90.4702 214.449 90.3516 214.864C90.2329 215.28 90.2055 215.716 90.2712 216.143L94.6824 244.816H120.012L125.371 216.24C125.452 215.807 125.437 215.362 125.326 214.935C125.216 214.509 125.012 214.112 124.731 213.773C124.45 213.435 124.097 213.162 123.699 212.975C123.3 212.787 122.865 212.69 122.425 212.69V212.69Z" fill="white"/>
<path d="M269.957 289.869H255.918C255.424 289.869 254.951 290.065 254.602 290.414C254.253 290.763 254.057 291.237 254.057 291.73V297.893C254.057 298.386 254.253 298.86 254.602 299.209C254.951 299.558 255.424 299.754 255.918 299.754H258.244V308.987H267.631V299.754H269.957C270.451 299.754 270.924 299.558 271.273 299.209C271.622 298.86 271.819 298.386 271.819 297.893V291.73C271.819 291.237 271.622 290.763 271.273 290.414C270.924 290.065 270.451 289.869 269.957 289.869Z" fill="#E6E6E6"/>
<path d="M284.019 346.266C275.421 333.685 271.025 318.705 271.462 303.473C271.47 303.121 271.356 302.778 271.139 302.501C270.923 302.224 270.617 302.031 270.274 301.954V299.291H255.447V301.917H255.242C255.043 301.917 254.845 301.957 254.66 302.033C254.476 302.11 254.308 302.222 254.167 302.364C254.026 302.505 253.914 302.673 253.838 302.858C253.762 303.042 253.723 303.24 253.723 303.44C253.723 303.477 253.724 303.514 253.727 303.551C254.895 319.834 250.951 334.437 241.894 347.358C241.373 348.101 241.106 348.993 241.135 349.899L242.756 400.051C242.795 401.169 243.265 402.23 244.067 403.01C244.869 403.791 245.941 404.232 247.061 404.241H280.598C281.73 404.232 282.813 403.781 283.618 402.984C284.422 402.188 284.884 401.109 284.905 399.977L285.529 351.284C285.548 349.497 285.021 347.746 284.019 346.266V346.266Z" fill="#E6E6E6"/>
<path d="M278.71 362.925H249.519C249.086 362.925 248.659 363.018 248.267 363.199C247.874 363.379 247.525 363.642 247.244 363.97C246.963 364.298 246.755 364.683 246.637 365.099C246.518 365.514 246.491 365.95 246.556 366.378L250.968 395.051H276.298L281.656 366.474C281.737 366.041 281.722 365.596 281.611 365.17C281.501 364.743 281.298 364.347 281.016 364.008C280.735 363.669 280.383 363.396 279.984 363.209C279.585 363.022 279.15 362.925 278.71 362.925H278.71Z" fill="white"/>
<path d="M93.935 502.257H87.2755C87.0413 502.257 86.8168 502.35 86.6512 502.515C86.4856 502.681 86.3926 502.906 86.3926 503.14V506.063C86.3926 506.297 86.4856 506.521 86.6512 506.687C86.8168 506.853 87.0413 506.946 87.2755 506.946H88.3791V511.325H92.8314V506.946H93.935C94.1691 506.946 94.3937 506.853 94.5593 506.687C94.7249 506.521 94.8179 506.297 94.8179 506.063V503.14C94.8179 502.906 94.7249 502.681 94.5593 502.515C94.3937 502.35 94.1691 502.257 93.935 502.257Z" fill="#E6E6E6"/>
<path d="M100.605 529.009C96.5261 523.041 94.4412 515.935 94.6483 508.71C94.6521 508.543 94.5979 508.38 94.4952 508.249C94.3925 508.117 94.2474 508.026 94.0847 507.989V506.726H87.0514V507.972H86.9545C86.8597 507.972 86.7659 507.99 86.6784 508.027C86.5909 508.063 86.5114 508.116 86.4445 508.184C86.3775 508.251 86.3245 508.33 86.2883 508.418C86.2522 508.506 86.2336 508.599 86.2338 508.694C86.2338 508.712 86.2344 508.729 86.2358 508.747C86.8849 516.12 84.8958 523.483 80.6226 529.527C80.3754 529.879 80.2491 530.302 80.2627 530.732L81.0317 554.521C81.0502 555.052 81.2729 555.555 81.6533 555.925C82.0338 556.295 82.5425 556.504 83.0735 556.509H98.9817C99.5187 556.504 100.033 556.29 100.414 555.913C100.796 555.535 101.015 555.023 101.025 554.486L101.321 531.389C101.33 530.541 101.08 529.711 100.605 529.009V529.009Z" fill="#E6E6E6"/>
<path d="M98.3158 537.753H83.1367V545.342H98.3158V537.753Z" fill="white"/>
<path d="M124.935 502.257H118.276C118.041 502.257 117.817 502.35 117.651 502.515C117.486 502.681 117.393 502.906 117.393 503.14V506.063C117.393 506.297 117.486 506.521 117.651 506.687C117.817 506.853 118.041 506.946 118.276 506.946H119.379V511.325H123.831V506.946H124.935C125.169 506.946 125.394 506.853 125.559 506.687C125.725 506.521 125.818 506.297 125.818 506.063V503.14C125.818 502.906 125.725 502.681 125.559 502.515C125.394 502.35 125.169 502.257 124.935 502.257Z" fill="#E6E6E6"/>
<path d="M131.605 529.009C127.526 523.041 125.441 515.935 125.648 508.71C125.652 508.543 125.598 508.38 125.495 508.249C125.392 508.117 125.247 508.026 125.085 507.989V506.726H118.051V507.972H117.955C117.86 507.972 117.766 507.99 117.678 508.027C117.591 508.063 117.511 508.116 117.445 508.184C117.378 508.251 117.324 508.33 117.288 508.418C117.252 508.506 117.234 508.599 117.234 508.694C117.234 508.712 117.234 508.729 117.236 508.747C117.885 516.12 115.896 523.483 111.623 529.527C111.375 529.879 111.249 530.302 111.263 530.732L112.032 554.521C112.05 555.052 112.273 555.555 112.653 555.925C113.034 556.295 113.543 556.504 114.073 556.509H129.982C130.519 556.504 131.033 556.29 131.414 555.913C131.796 555.535 132.015 555.023 132.025 554.486L132.321 531.389C132.33 530.541 132.08 529.711 131.605 529.009Z" fill="#E6E6E6"/>
<path d="M129.316 537.753H114.137V545.342H129.316V537.753Z" fill="white"/>
<path d="M155.935 502.257H149.276C149.041 502.257 148.817 502.35 148.651 502.515C148.486 502.681 148.393 502.906 148.393 503.14V506.063C148.393 506.297 148.486 506.521 148.651 506.687C148.817 506.853 149.041 506.946 149.276 506.946H150.379V511.325H154.831V506.946H155.935C156.169 506.946 156.394 506.853 156.559 506.687C156.725 506.521 156.818 506.297 156.818 506.063V503.14C156.818 502.906 156.725 502.681 156.559 502.515C156.394 502.35 156.169 502.257 155.935 502.257Z" fill="#E6E6E6"/>
<path d="M162.605 529.009C158.526 523.041 156.441 515.935 156.648 508.71C156.652 508.543 156.598 508.38 156.495 508.249C156.392 508.117 156.247 508.026 156.085 507.989V506.726H149.051V507.972H148.955C148.86 507.972 148.766 507.99 148.678 508.027C148.591 508.063 148.511 508.116 148.445 508.184C148.378 508.251 148.324 508.33 148.288 508.418C148.252 508.506 148.234 508.599 148.234 508.694C148.234 508.712 148.234 508.729 148.236 508.747C148.885 516.12 146.896 523.483 142.623 529.527C142.375 529.879 142.249 530.302 142.263 530.732L143.032 554.521C143.05 555.052 143.273 555.555 143.653 555.925C144.034 556.295 144.543 556.504 145.073 556.509H160.982C161.519 556.504 162.033 556.29 162.414 555.913C162.796 555.535 163.015 555.023 163.025 554.486L163.321 531.389C163.33 530.541 163.08 529.711 162.605 529.009Z" fill="#E6E6E6"/>
<path d="M160.316 537.753H145.137V545.342H160.316V537.753Z" fill="white"/>
<path d="M245.567 444.137H231.527C231.283 444.137 231.041 444.185 230.815 444.278C230.589 444.372 230.384 444.509 230.211 444.682C230.038 444.855 229.901 445.06 229.808 445.286C229.714 445.512 229.666 445.754 229.666 445.998V452.16C229.666 452.654 229.862 453.127 230.211 453.477C230.56 453.826 231.034 454.022 231.527 454.022H233.854V463.255H243.24V454.022H245.567C246.06 454.022 246.534 453.826 246.883 453.477C247.232 453.127 247.428 452.654 247.428 452.16V445.998C247.428 445.754 247.38 445.512 247.286 445.286C247.193 445.06 247.056 444.855 246.883 444.682C246.71 444.509 246.505 444.372 246.279 444.278C246.053 444.185 245.811 444.137 245.567 444.137V444.137Z" fill="#E6E6E6"/>
<path d="M259.628 500.534C251.03 487.953 246.635 472.973 247.072 457.74C247.079 457.389 246.965 457.046 246.749 456.769C246.532 456.492 246.226 456.298 245.883 456.221V453.559H231.056V456.184H230.852C230.652 456.185 230.454 456.224 230.27 456.301C230.085 456.378 229.918 456.49 229.777 456.631C229.635 456.773 229.524 456.941 229.447 457.125C229.371 457.31 229.332 457.508 229.332 457.708C229.332 457.745 229.334 457.782 229.336 457.818C230.505 474.102 226.56 488.704 217.503 501.626C216.982 502.369 216.716 503.26 216.744 504.167L218.366 554.318C218.405 555.437 218.874 556.497 219.676 557.278C220.478 558.059 221.551 558.5 222.67 558.508H256.207C257.339 558.499 258.423 558.048 259.227 557.252C260.032 556.455 260.494 555.376 260.514 554.244L261.139 505.552C261.157 503.764 260.63 502.014 259.628 500.534Z" fill="#E6E6E6"/>
<path d="M254.319 517.192H225.128C224.696 517.192 224.269 517.286 223.876 517.466C223.484 517.647 223.135 517.91 222.853 518.238C222.572 518.566 222.365 518.951 222.246 519.366C222.127 519.782 222.1 520.218 222.166 520.645L226.577 549.318H251.907L257.265 520.742C257.346 520.309 257.331 519.864 257.221 519.437C257.11 519.011 256.907 518.614 256.626 518.275C256.344 517.937 255.992 517.664 255.593 517.477C255.195 517.289 254.76 517.192 254.319 517.192V517.192Z" fill="white"/>
<path d="M253.233 260.463H169.545C175.396 228.829 174.05 190.631 169.545 149.551H253.233C248.848 190.631 247.537 228.829 253.233 260.463Z" fill="#E6E6E6"/>
<path d="M211.892 222.148C223.029 222.148 232.058 213.119 232.058 201.982C232.058 190.845 223.029 181.816 211.892 181.816C200.755 181.816 191.727 190.845 191.727 201.982C191.727 213.119 200.755 222.148 211.892 222.148Z" fill="white"/>
<path d="M176.602 407.672H92.9141C98.765 376.039 97.4189 337.84 92.9141 296.761H176.602C172.217 337.841 170.906 376.039 176.602 407.672Z" fill="#E6E6E6"/>
<path d="M135.261 369.357C146.399 369.357 155.427 360.329 155.427 349.192C155.427 338.054 146.399 329.026 135.261 329.026C124.124 329.026 115.096 338.054 115.096 349.192C115.096 360.329 124.124 369.357 135.261 369.357Z" fill="white"/>
<path d="M300.621 267.52H216.934C222.785 235.887 221.438 197.689 216.934 156.609H300.621C296.236 197.689 294.926 235.887 300.621 267.52Z" fill="#E6E6E6"/>
<path d="M259.281 229.205C270.418 229.205 279.447 220.177 279.447 209.04C279.447 197.903 270.418 188.874 259.281 188.874C248.144 188.874 239.115 197.903 239.115 209.04C239.115 220.177 248.144 229.205 259.281 229.205Z" fill="white"/>
<path d="M300.621 262.479H216.934C222.785 230.845 221.438 192.647 216.934 151.567H300.621C296.236 192.647 294.926 230.845 300.621 262.479Z" fill="#E6E6E6"/>
<path d="M259.281 224.164C270.418 224.164 279.447 215.136 279.447 203.999C279.447 192.862 270.418 183.833 259.281 183.833C248.144 183.833 239.115 192.862 239.115 203.999C239.115 215.136 248.144 224.164 259.281 224.164Z" fill="white"/>
<path d="M300.621 267.52H216.934C222.785 235.887 221.438 197.689 216.934 156.609H300.621C296.236 197.689 294.926 235.887 300.621 267.52Z" fill="#E6E6E6"/>
<path d="M259.281 229.205C270.418 229.205 279.447 220.177 279.447 209.04C279.447 197.903 270.418 188.874 259.281 188.874C248.144 188.874 239.115 197.903 239.115 209.04C239.115 220.177 248.144 229.205 259.281 229.205Z" fill="white"/>
<path d="M319.779 254.413H45.5254V284.661H319.779V254.413Z" fill="#E6E6E6"/>
<path d="M319.779 404.647H45.5254V434.896H319.779V404.647Z" fill="#E6E6E6"/>
<path d="M319.779 554.882H45.5254V585.13H319.779V554.882Z" fill="#E6E6E6"/>
<path d="M796.854 677.599L728.529 629.274C751.573 606.826 772.532 574.863 792.575 538.723L860.9 587.048C833.598 618.055 810.471 648.484 796.854 677.599Z" fill="white"/>
<path d="M796.873 626.148C808.01 626.148 817.038 617.119 817.038 605.982C817.038 594.845 808.01 585.816 796.873 585.816C785.736 585.816 776.707 594.845 776.707 605.982C776.707 617.119 785.736 626.148 796.873 626.148Z" fill="white"/>
<path d="M467.262 457.078H459.762C459.498 457.078 459.245 457.183 459.059 457.369C458.872 457.556 458.768 457.809 458.768 458.072V461.364C458.768 461.495 458.793 461.624 458.843 461.745C458.893 461.866 458.966 461.975 459.059 462.068C459.151 462.16 459.261 462.233 459.381 462.283C459.502 462.333 459.631 462.359 459.762 462.359H461.005V467.291H466.019V462.359H467.262C467.526 462.359 467.778 462.254 467.965 462.068C468.151 461.881 468.256 461.628 468.256 461.364V458.072C468.256 457.809 468.151 457.556 467.965 457.369C467.778 457.183 467.526 457.078 467.262 457.078V457.078Z" fill="#E6E6E6"/>
<path d="M474.774 487.206C470.18 480.485 467.832 472.483 468.066 464.345C468.07 464.158 468.009 463.974 467.893 463.826C467.778 463.678 467.614 463.575 467.431 463.534V462.111H459.51V463.514H459.401C459.294 463.514 459.188 463.535 459.09 463.576C458.991 463.617 458.902 463.677 458.826 463.753C458.751 463.828 458.691 463.918 458.651 464.017C458.61 464.115 458.589 464.221 458.589 464.328C458.589 464.348 458.59 464.367 458.591 464.387C459.322 472.69 457.082 480.984 452.27 487.79C451.991 488.186 451.849 488.663 451.864 489.147L452.73 515.939C452.751 516.536 453.002 517.103 453.431 517.52C453.859 517.937 454.432 518.172 455.03 518.177H472.946C473.551 518.172 474.13 517.931 474.559 517.506C474.989 517.08 475.236 516.504 475.247 515.899L475.581 489.887C475.59 488.932 475.309 487.997 474.774 487.206V487.206Z" fill="white"/>
<path opacity="0.2" d="M465.699 458.151C465.699 458.72 465.473 459.265 465.07 459.668C464.668 460.07 464.122 460.296 463.553 460.296C462.985 460.296 462.439 460.07 462.037 459.668C461.634 459.265 461.408 458.72 461.408 458.151" fill="black"/>
<path d="M471.284 492.368H456.16V502.451H471.284V492.368Z" fill="white"/>
<path d="M704.602 561.742H690.562C690.069 561.742 689.595 561.938 689.246 562.287C688.897 562.636 688.701 563.109 688.701 563.603V569.765C688.701 570.259 688.897 570.732 689.246 571.081C689.595 571.431 690.069 571.627 690.562 571.627H692.889V580.86H702.275V571.627H704.602C705.095 571.627 705.569 571.431 705.918 571.081C706.267 570.732 706.463 570.259 706.463 569.765V563.603C706.463 563.109 706.267 562.636 705.918 562.287C705.569 561.938 705.095 561.742 704.602 561.742V561.742Z" fill="#E6E6E6"/>
<path d="M718.664 618.139C710.065 605.558 705.67 590.578 706.107 575.345C706.115 574.994 706 574.651 705.784 574.374C705.567 574.097 705.262 573.903 704.919 573.826V571.164H690.091V573.789H689.887C689.687 573.79 689.489 573.829 689.305 573.906C689.12 573.983 688.953 574.095 688.812 574.236C688.671 574.378 688.559 574.546 688.482 574.73C688.406 574.915 688.367 575.113 688.367 575.313C688.367 575.35 688.369 575.386 688.372 575.423C689.54 591.707 685.595 606.309 676.538 619.231C676.017 619.974 675.751 620.865 675.779 621.772L677.401 671.923C677.44 673.042 677.909 674.102 678.711 674.883C679.513 675.664 680.586 676.105 681.705 676.113H715.242C716.374 676.104 717.458 675.653 718.262 674.857C719.067 674.06 719.529 672.981 719.549 671.849L720.174 623.156C720.192 621.369 719.666 619.619 718.664 618.139V618.139Z" fill="white"/>
<path opacity="0.2" d="M701.676 563.75C701.676 564.815 701.253 565.836 700.5 566.59C699.747 567.343 698.725 567.766 697.66 567.766C696.595 567.766 695.574 567.343 694.821 566.59C694.068 565.836 693.645 564.815 693.645 563.75" fill="black"/>
<path d="M713.355 634.797H684.163C683.731 634.797 683.304 634.891 682.911 635.071C682.519 635.252 682.17 635.515 681.888 635.843C681.607 636.171 681.4 636.556 681.281 636.971C681.163 637.387 681.135 637.823 681.201 638.25L685.612 666.923H710.942L716.3 638.347C716.381 637.914 716.366 637.469 716.256 637.042C716.145 636.616 715.942 636.219 715.661 635.88C715.38 635.542 715.027 635.269 714.629 635.082C714.23 634.894 713.795 634.797 713.355 634.797V634.797Z" fill="white"/>
<path d="M664.545 677.52H580.857C586.708 645.886 585.362 607.688 580.857 566.608H664.545C660.16 607.688 658.85 645.887 664.545 677.52Z" fill="white"/>
<path d="M623.207 639.205C634.344 639.205 643.372 630.176 643.372 619.039C643.372 607.902 634.344 598.874 623.207 598.874C612.07 598.874 603.041 607.902 603.041 619.039C603.041 630.176 612.07 639.205 623.207 639.205Z" fill="white"/>
<path d="M322.242 328.466L341.029 326.758L352.985 297.724L331.636 285.768L322.242 328.466Z" fill="#FFB8B8"/>
<path d="M494.661 408.174C495.285 406.616 495.531 404.932 495.377 403.26C495.223 401.589 494.674 399.978 493.776 398.56C492.877 397.143 491.654 395.959 490.208 395.106C488.762 394.254 487.134 393.757 485.459 393.657L456.289 391.918L451.994 406.2L482.023 414.447C484.532 415.136 487.207 414.878 489.538 413.721C491.869 412.564 493.692 410.589 494.661 408.174V408.174Z" fill="#FFB8B8"/>
<path d="M463.338 414.687L463.017 387.887L398.224 377.549L348.309 320.301C345.712 317.323 342.123 315.386 338.208 314.851C334.293 314.315 330.316 315.217 327.015 317.389C325.016 318.704 323.33 320.442 322.077 322.481C320.824 324.519 320.033 326.807 319.762 329.184C319.49 331.562 319.744 333.969 320.506 336.238C321.267 338.506 322.517 340.579 324.168 342.311L365.348 392.989L463.338 414.687Z" fill="#575A89"/>
<path d="M307.725 716.167H324.804L367.167 524.633L411.054 583.802L436.673 711.897H452.899L449.483 574.408L392.267 427.526H335.905C320.503 455.401 308.421 484.135 322.242 513.777L307.725 716.167Z" fill="#2F2E41"/>
<path d="M426.205 727.8C426.016 728.404 425.958 729.042 426.035 729.67C426.112 730.299 426.321 730.904 426.65 731.445C426.979 731.986 427.419 732.451 427.942 732.808C428.464 733.166 429.057 733.408 429.68 733.518L471.474 740.935C473.125 741.237 474.83 740.925 476.267 740.057C477.704 739.188 478.774 737.824 479.274 736.222V736.222C479.762 734.691 479.694 733.037 479.082 731.551C478.471 730.065 477.356 728.842 475.932 728.096C466.743 723.378 458.834 716.502 452.884 708.058C448.291 712.335 443.157 711.933 437.705 708.781L431.922 709.504L426.205 727.8Z" fill="#2F2E41"/>
<path d="M299.818 727.8C299.629 728.404 299.571 729.042 299.648 729.67C299.725 730.299 299.935 730.904 300.264 731.445C300.592 731.986 301.033 732.451 301.555 732.808C302.078 733.166 302.67 733.408 303.294 733.518L345.087 740.935C346.738 741.237 348.443 740.925 349.88 740.057C351.317 739.188 352.387 737.824 352.888 736.222V736.222C353.375 734.691 353.307 733.037 352.696 731.551C352.084 730.065 350.969 728.842 349.546 728.096C340.356 723.378 332.447 716.502 326.497 708.058C321.904 712.335 316.77 711.933 311.318 708.781L305.536 709.504L299.818 727.8Z" fill="#2F2E41"/>
<path d="M353.413 308.398C366.619 308.398 377.324 297.693 377.324 284.487C377.324 271.282 366.619 260.576 353.413 260.576C340.207 260.576 329.502 271.282 329.502 284.487C329.502 297.693 340.207 308.398 353.413 308.398Z" fill="#FFB8B8"/>
<path d="M332.064 433.931L394.403 432.223L376.095 374.604C387.473 356.364 376.022 338.144 359.818 319.927L347.008 311.387L326.513 309.679C317.639 319.174 312.784 331.735 312.964 344.73C313.37 372.556 318.297 402.848 332.064 433.931Z" fill="#575A89"/>
<path d="M475.292 472.716C476.479 471.529 477.367 470.077 477.883 468.48C478.399 466.883 478.528 465.186 478.26 463.529C477.991 461.872 477.333 460.303 476.339 458.95C475.345 457.598 474.044 456.501 472.542 455.75L446.409 442.675L436.842 454.116L461.205 473.511C463.241 475.132 465.802 475.947 468.4 475.8C470.998 475.653 473.451 474.555 475.292 472.716V472.716Z" fill="#FFB8B8"/>
<path d="M443.934 466.382L454.181 441.617L398.68 406.623L375.309 334.355C374.093 330.595 371.556 327.403 368.167 325.371C364.778 323.338 360.767 322.603 356.878 323.301V323.301C354.523 323.724 352.289 324.658 350.335 326.039C348.381 327.42 346.754 329.213 345.569 331.292C344.385 333.371 343.671 335.684 343.479 338.069C343.286 340.454 343.62 342.852 344.457 345.094L362.38 407.885L443.934 466.382Z" fill="#575A89"/>
<path d="M314.131 275.094C314.131 284.398 320.173 298.806 327.794 304.982C332.922 309.138 339.699 308.963 342.312 303.275C344.992 297.439 354.231 283.722 370.493 275.094C392.17 263.591 362.805 243.912 342.312 246.913C326.912 249.168 314.131 259.53 314.131 275.094Z" fill="#2F2E41"/>
<path d="M328.648 262.284C338.08 262.284 345.727 254.637 345.727 245.205C345.727 235.772 338.08 228.125 328.648 228.125C319.215 228.125 311.568 235.772 311.568 245.205C311.568 254.637 319.215 262.284 328.648 262.284Z" fill="#2F2E41"/>
<path d="M348.289 239.227C348.287 234.921 346.658 230.775 343.728 227.619C340.798 224.464 336.784 222.533 332.49 222.212C332.915 222.181 333.339 222.147 333.771 222.147C338.301 222.147 342.645 223.947 345.848 227.15C349.051 230.353 350.85 234.697 350.85 239.227C350.85 243.756 349.051 248.101 345.848 251.304C342.645 254.507 338.301 256.306 333.771 256.306C333.339 256.306 332.915 256.273 332.49 256.241C336.784 255.921 340.798 253.989 343.728 250.834C346.658 247.679 348.287 243.533 348.289 239.227Z" fill="#2F2E41"/>
<path d="M353.839 293.027C355.961 293.027 357.682 290.733 357.682 287.903C357.682 285.073 355.961 282.779 353.839 282.779C351.717 282.779 349.996 285.073 349.996 287.903C349.996 290.733 351.717 293.027 353.839 293.027Z" fill="#FFB8B8"/>
<path d="M837.751 684.845H571.879L515.578 418.694H467.529V406.752H525.258L581.559 672.902H837.751V684.845Z" fill="#3F3D56"/>
<path d="M610.841 733.468C624.975 733.468 636.433 722.01 636.433 707.877C636.433 693.743 624.975 682.285 610.841 682.285C596.708 682.285 585.25 693.743 585.25 707.877C585.25 722.01 596.708 733.468 610.841 733.468Z" fill="#3F3D56"/>
<path d="M801.923 733.468C816.057 733.468 827.515 722.01 827.515 707.877C827.515 693.743 816.057 682.285 801.923 682.285C787.79 682.285 776.332 693.743 776.332 707.877C776.332 722.01 787.79 733.468 801.923 733.468Z" fill="#3F3D56"/>
<path d="M832.904 679.221H574.225L528.584 453.669H875.735C877.507 453.669 879.257 454.053 880.866 454.794C882.475 455.535 883.904 456.616 885.056 457.962C886.207 459.309 887.053 460.888 887.536 462.593C888.018 464.297 888.126 466.086 887.851 467.836L845.018 668.861C844.576 671.753 843.11 674.39 840.886 676.292C838.662 678.194 835.83 679.233 832.904 679.221V679.221ZM577.034 675.809H832.904C835.015 675.817 837.06 675.067 838.665 673.695C840.269 672.322 841.327 670.419 841.646 668.331L884.479 467.306C884.678 466.043 884.6 464.752 884.252 463.522C883.904 462.291 883.293 461.151 882.463 460.179C881.632 459.208 880.6 458.428 879.439 457.893C878.277 457.358 877.014 457.081 875.735 457.081H532.726L577.034 675.809Z" fill="#3F3D56"/>
<path d="M624.513 678.499L594.623 455.653L597.989 455.097L627.879 677.943L624.513 678.499Z" fill="#3F3D56"/>
<path d="M790.713 676.788L787.344 676.242L816.361 455.102L819.73 455.648L790.713 676.788Z" fill="#3F3D56"/>
<path d="M711.527 455.375H708.115V678.221H711.527V455.375Z" fill="#3F3D56"/>
<path d="M546.014 515.088L546.006 518.5L876.301 519.3L876.309 515.888L546.014 515.088Z" fill="#3F3D56"/>
<path d="M853.001 620.494L562.83 622.478L562.853 625.89L853.025 623.907L853.001 620.494Z" fill="#3F3D56"/>
<path d="M472.648 421.253C483.013 421.253 491.415 416.67 491.415 411.017C491.415 405.363 483.013 400.78 472.648 400.78C462.283 400.78 453.881 405.363 453.881 411.017C453.881 416.67 462.283 421.253 472.648 421.253Z" fill="#3F3D56"/>
</g>
<defs>
<clipPath id="clip0">
<rect width="888" height="741.048" fill="white"/>
</clipPath>
</defs>
</svg>
